<!DOCTYPE svg PUBLIC "-//W3C//DTD SVG 20010904//EN" "http://www.w3.org/TR/2001/REC-SVG-20010904/DTD/svg10.dtd">
<svg version="1.0" xmlns="http://www.w3.org/2000/svg" width="160px" height="450px" viewBox="0 0 1600 4500" preserveAspectRatio="xMidYMid meet">
<g id="layer101" fill="#2b141b" stroke="none">
<path d="M450 4494 c0 -5 -30 -8 -67 -6 -107 4 -247 -31 -295 -75 -22 -20 -23 -64 -3 -103 24 -47 117 -120 153 -120 17 0 33 4 37 10 8 13 74 3 102 -15 13 -9 23 -25 23 -40 0 -13 8 -31 18 -41 15 -16 17 -47 20 -287 2 -169 0 -278 -6 -291 -10 -19 -22 -202 -38 -558 -3 -76 -10 -138 -14 -138 -5 0 -8 -19 -8 -42 1 -77 -33 -128 -173 -260 -128 -120 -169 -176 -169 -232 0 -11 -7 -34 -15 -50 -26 -49 -19 -54 37 -31 13 5 18 2 18 -9 0 -21 31 -36 74 -36 32 0 66 -20 66 -40 0 -5 24 -36 53 -69 29 -32 69 -90 88 -127 19 -38 52 -99 73 -136 20 -37 46 -99 58 -139 11 -40 29 -93 41 -118 12 -25 24 -53 28 -62 4 -10 -4 -32 -23 -60 -18 -27 -29 -55 -28 -74 4 -73 6 -71 -60 -69 -33 2 -60 -1 -60 -4 1 -16 17 -29 41 -35 35 -9 42 -30 28 -81 -18 -64 -19 -158 -1 -178 9 -11 15 -43 17 -95 1 -43 5 -91 9 -108 16 -63 49 -135 62 -135 10 0 14 -16 14 -62 1 -92 24 -227 47 -273 11 -22 26 -62 33 -90 23 -88 68 -161 120 -198 28 -20 123 -23 183 -6 45 12 107 71 139 131 19 37 22 57 21 139 -1 96 -36 303 -55 326 -5 7 -6 18 -1 25 4 7 8 49 9 93 1 85 24 227 41 260 21 39 24 99 8 158 -12 47 -13 68 -4 100 6 22 8 53 5 69 -3 17 -1 30 8 35 15 9 36 46 36 62 0 6 -7 11 -15 11 -8 0 -15 -6 -15 -13 0 -8 -9 -22 -21 -33 -31 -28 -54 -8 -54 49 0 25 -4 49 -8 53 -4 4 -7 27 -7 51 0 37 6 49 38 81 21 20 51 43 67 51 17 7 42 20 57 27 14 8 32 14 40 14 7 0 46 32 87 71 131 127 156 228 107 433 -30 123 -29 129 45 166 40 21 139 136 139 161 0 25 -28 45 -42 31 -7 -7 -28 -12 -48 -13 -34 0 -58 -12 -117 -56 l-30 -22 -6 207 c-6 188 -5 212 12 257 10 28 21 76 25 108 3 32 13 75 22 95 43 99 55 165 49 257 -4 50 -13 125 -21 169 -17 92 -18 220 -3 263 5 17 28 45 50 62 50 41 50 62 -2 157 -37 67 -42 84 -47 160 -4 68 -10 92 -26 112 -12 15 -27 40 -34 56 l-13 29 -72 -7 c-79 -8 -117 -26 -117 -56 0 -19 32 -36 50 -25 12 7 40 -58 40 -95 0 -15 -4 -40 -10 -56 -5 -16 -12 -144 -14 -284 -3 -155 -10 -293 -19 -352 -9 -53 -19 -142 -23 -199 -7 -104 -20 -158 -70 -284 -20 -51 -29 -98 -34 -171 -5 -61 -16 -123 -28 -156 -11 -29 -23 -76 -27 -103 -4 -28 -14 -87 -22 -132 -14 -74 -18 -83 -38 -83 -29 0 -37 10 -23 27 9 11 9 16 -3 23 -25 16 -132 104 -187 155 -97 90 -111 137 -146 505 -31 313 -34 394 -19 438 11 31 11 32 -13 26 l-24 -6 0 255 c0 232 2 258 20 299 16 38 28 49 69 67 55 23 70 26 54 10 -11 -11 -6 -49 6 -49 4 0 32 7 62 16 161 48 240 135 177 195 -88 83 -216 127 -390 136 -69 4 -118 2 -118 -3z m51 -2463 c32 -13 48 -26 52 -43 2 -12 14 -59 26 -103 11 -44 21 -88 21 -98 0 -25 -172 192 -180 228 -4 16 -11 39 -16 49 -7 18 -6 18 22 3 16 -9 50 -25 75 -36z m233 -71 c23 -9 25 -12 14 -35 -12 -28 -18 -25 -36 18 -13 30 -13 31 22 17z"/>
</g>
<g id="layer102" fill="#532e2d" stroke="none">
<path d="M450 4494 c0 -5 -30 -8 -67 -6 -107 4 -247 -31 -295 -75 -22 -20 -23 -64 -3 -103 24 -47 117 -120 153 -120 17 0 33 4 37 10 8 13 74 3 102 -15 13 -9 23 -25 23 -40 0 -13 8 -31 18 -41 15 -16 17 -47 20 -287 2 -169 0 -278 -6 -291 -10 -19 -22 -202 -38 -558 -3 -76 -10 -138 -14 -138 -5 0 -8 -19 -8 -42 1 -77 -33 -128 -173 -260 -128 -120 -169 -176 -169 -232 0 -11 -7 -34 -15 -50 -26 -49 -19 -54 37 -31 13 5 18 2 18 -9 0 -21 31 -36 74 -36 32 0 66 -20 66 -40 0 -5 24 -36 53 -69 29 -32 69 -90 88 -127 19 -38 52 -99 73 -136 20 -37 46 -99 58 -139 11 -40 29 -93 41 -118 12 -25 24 -53 28 -62 4 -10 -4 -32 -23 -60 -18 -27 -29 -55 -28 -74 4 -73 6 -71 -60 -69 -33 2 -60 -1 -60 -4 1 -16 17 -29 41 -35 35 -9 42 -30 28 -81 -18 -64 -19 -158 -1 -178 9 -11 15 -43 17 -95 1 -43 5 -91 9 -108 16 -63 49 -135 62 -135 10 0 14 -16 14 -62 1 -92 24 -227 47 -273 11 -22 26 -62 33 -90 20 -76 54 -137 99 -178 38 -34 46 -37 104 -37 87 0 132 15 177 60 69 69 85 111 83 221 -1 96 -36 303 -55 326 -5 7 -6 18 -1 25 4 7 8 49 9 93 1 85 24 227 41 260 21 39 24 99 8 158 -12 47 -13 68 -4 100 6 22 8 53 5 69 -3 17 -1 30 8 35 15 9 36 46 36 62 0 6 -7 11 -15 11 -8 0 -15 -6 -15 -13 0 -8 -9 -22 -21 -33 -31 -28 -54 -8 -54 49 0 25 -4 49 -8 53 -4 4 -7 27 -7 51 0 37 6 49 38 81 21 20 51 43 67 51 17 7 42 20 57 27 14 8 32 14 40 14 7 0 46 32 87 71 131 127 156 228 107 433 -30 123 -29 129 45 166 40 21 139 136 139 161 0 25 -28 45 -42 31 -7 -7 -28 -12 -48 -13 -34 0 -58 -12 -117 -56 l-30 -22 -6 207 c-6 188 -5 212 12 257 10 28 21 76 25 108 3 32 13 75 22 95 43 99 55 165 49 257 -4 50 -13 125 -21 169 -17 92 -18 220 -3 263 5 17 28 45 50 62 50 41 50 62 -2 157 -37 67 -42 84 -47 160 -4 68 -10 92 -26 112 -12 15 -27 39 -34 55 -9 21 -18 27 -39 26 l-28 -2 28 -4 c25 -4 39 -23 17 -23 -6 0 -15 -10 -20 -22 l-9 -23 0 22 c-1 24 -16 39 -26 24 -3 -6 -18 -3 -35 7 -27 15 -32 16 -57 2 -35 -20 -42 -56 -14 -65 12 -3 25 -4 31 0 12 7 40 -58 40 -95 0 -15 -4 -40 -10 -56 -5 -16 -12 -144 -14 -284 -3 -155 -10 -293 -19 -352 -9 -53 -19 -142 -23 -199 -7 -104 -20 -158 -70 -284 -20 -51 -29 -98 -34 -171 -5 -61 -16 -123 -28 -156 -11 -29 -23 -76 -27 -103 -4 -28 -14 -87 -22 -132 -14 -74 -18 -83 -38 -83 -29 0 -37 10 -23 27 9 11 9 16 -3 23 -27 17 -134 105 -190 158 -93 87 -108 135 -139 452 -37 388 -41 440 -30 460 12 23 8 24 -23 9 -21 -10 -21 -10 -3 5 11 9 23 16 28 16 4 0 8 5 8 10 0 6 -9 10 -20 10 -19 0 -20 7 -20 254 0 231 2 257 20 298 16 38 28 49 69 67 55 23 70 26 54 10 -11 -11 -6 -49 6 -49 4 0 32 7 62 16 161 48 240 135 177 195 -88 83 -216 127 -390 136 -69 4 -118 2 -118 -3z m22 -79 c2 -19 0 -35 -4 -35 -4 0 -8 16 -8 35 0 19 2 35 4 35 2 0 6 -16 8 -35z m788 -45 c0 -5 -7 -7 -15 -3 -9 3 -25 -3 -35 -12 -11 -10 -20 -15 -20 -10 0 12 33 34 53 35 9 0 17 -4 17 -10z m-751 -91 c-5 -10 -9 -29 -9 -43 0 -31 -15 -34 -30 -7 -13 25 -13 54 0 46 6 -3 10 1 10 9 0 8 8 14 19 13 15 -1 17 -5 10 -18z m27 -45 c-8 -10 -13 -8 -20 8 -7 14 -6 22 5 28 18 12 31 -19 15 -36z m766 -16 c-9 -9 -12 -4 -11 23 0 32 1 33 11 11 8 -17 8 -26 0 -34z m18 -43 c0 -18 -5 -25 -20 -25 -11 0 -20 -4 -20 -10 0 -5 5 -10 11 -10 5 0 7 -5 3 -11 -11 -18 -26 18 -18 44 13 41 44 50 44 12z m-812 -1 c65 0 86 -12 75 -41 -4 -10 -14 -12 -35 -8 -16 4 -35 2 -42 -4 -19 -16 -80 -9 -87 9 -7 17 11 65 20 53 3 -4 34 -8 69 -9z m-28 -609 c0 -8 -4 -15 -10 -15 -5 0 -10 7 -10 15 0 8 5 15 10 15 6 0 10 -7 10 -15z m44 -25 c14 -5 26 -17 26 -26 0 -11 5 -14 18 -9 13 5 14 3 5 -6 -6 -6 -23 -11 -38 -11 -34 0 -27 -22 9 -26 15 -2 29 -9 31 -15 5 -13 13 -95 46 -427 10 -113 24 -218 30 -235 6 -16 13 -64 15 -106 5 -73 4 -77 -18 -83 -22 -6 -22 -7 -4 -21 10 -7 44 -22 75 -31 31 -10 65 -23 76 -31 19 -13 19 -13 0 -13 -30 -1 1 -16 50 -25 22 -4 45 -11 52 -17 7 -5 16 -7 20 -5 5 3 16 0 25 -7 15 -11 14 -14 -15 -32 l-32 -19 45 -6 c25 -3 37 -7 26 -7 -15 -2 -16 -5 -6 -17 7 -8 21 -15 32 -15 19 0 20 -5 14 -74 -3 -41 -9 -83 -13 -93 -5 -11 -37 -46 -73 -79 -75 -68 -107 -94 -97 -77 12 20 -4 42 -39 53 -19 6 -35 16 -35 21 -1 5 -2 15 -3 22 -1 6 2 23 6 36 6 18 4 27 -9 37 -17 12 -17 13 4 14 25 0 79 43 88 69 10 31 -22 90 -53 97 -43 9 -49 12 -25 13 16 1 20 6 16 21 -5 19 -37 25 -110 23 -15 -1 -17 13 -3 22 14 9 12 25 -3 25 -26 0 -137 -76 -167 -115 -17 -22 -44 -46 -58 -53 -24 -11 -25 -11 -9 1 20 17 22 33 5 41 -7 3 -2 3 12 0 18 -4 32 1 44 15 19 21 19 21 -5 21 -13 0 -36 -7 -51 -14 -24 -13 -28 -13 -28 0 0 8 5 24 12 37 26 51 29 59 23 65 -10 10 -63 -57 -77 -95 -10 -28 -21 -35 -97 -62 -47 -17 -121 -48 -164 -69 -42 -21 -77 -34 -77 -30 0 4 5 8 11 8 5 0 8 4 5 9 -15 23 65 188 85 175 5 -3 6 3 2 12 -4 12 -3 15 6 10 7 -5 20 -1 29 8 27 24 194 106 203 100 5 -3 9 2 9 10 0 11 10 16 28 17 25 1 23 2 -17 15 -11 4 -10 8 4 24 10 11 15 23 12 26 -4 4 -9 -1 -13 -10 -14 -36 -26 -14 -21 40 6 64 21 89 31 50 7 -29 21 -34 30 -10 4 9 2 13 -5 8 -7 -4 -9 0 -5 13 4 11 2 33 -4 48 -7 19 -6 122 6 354 9 179 17 342 17 361 2 26 8 38 27 47 30 15 32 15 64 3z m702 -271 c-3 -33 -11 -68 -17 -77 -10 -16 -10 -16 -5 0 3 9 8 44 12 77 3 34 9 61 12 61 3 0 2 -27 -2 -61z m-26 -122 c0 -7 -7 -22 -15 -33 -13 -17 -14 -16 -4 14 11 33 19 41 19 19z m-70 -192 c-6 -30 -8 -33 -9 -13 -1 25 8 62 14 56 2 -2 -1 -21 -5 -43z m-56 -319 c-3 -21 -8 -35 -11 -32 -2 2 -1 20 3 40 3 21 8 35 11 32 2 -2 1 -20 -3 -40z m-41 -237 c-5 -5 -7 7 -4 29 5 34 6 35 9 8 2 -16 0 -32 -5 -37z m-353 -45 c0 -2 -12 -4 -26 -4 -14 0 -23 4 -20 9 6 8 46 4 46 -5z m-116 -35 c-27 -30 -74 -62 -74 -51 0 9 78 72 89 72 2 0 -4 -9 -15 -21z m-99 -29 c-10 -11 -21 -17 -24 -14 -3 3 3 12 13 20 28 20 32 17 11 -6z m-244 -114 c8 4 9 3 5 -5 -5 -7 -12 -9 -19 -3 -7 5 -24 12 -39 16 -16 3 -28 12 -28 18 0 9 3 9 12 0 7 -7 19 -12 27 -12 12 0 12 3 3 12 -7 7 -12 21 -12 33 0 13 7 5 20 -23 13 -28 24 -41 31 -36z m85 -55 c-3 -5 1 -12 10 -15 9 -4 14 -9 11 -13 -9 -8 -38 17 -31 28 3 5 7 9 10 9 3 0 3 -4 0 -9z m662 -46 c0 -14 -9 -32 -19 -39 -10 -7 -16 -16 -11 -21 4 -5 1 -5 -5 -1 -7 4 -13 12 -13 17 0 8 40 69 46 69 1 0 2 -11 2 -25z m-467 -44 c32 -13 48 -26 52 -43 2 -12 14 -59 26 -103 11 -44 21 -88 21 -98 0 -25 -172 192 -180 228 -4 16 -11 39 -16 49 -7 18 -6 18 22 3 16 -9 50 -25 75 -36z m233 -71 c23 -9 25 -12 14 -35 -12 -28 -18 -25 -36 18 -13 30 -13 31 22 17z m-75 -474 c1 -5 -5 -3 -13 4 -8 6 -12 19 -9 27 6 14 8 14 14 -3 4 -10 8 -23 8 -28z m72 -320 c14 -15 11 -26 -6 -20 -9 4 -15 18 -14 38 1 21 3 24 6 11 3 -11 9 -24 14 -29z m-31 -71 c-21 -25 -32 -17 -13 9 10 13 20 20 21 15 2 -5 -2 -16 -8 -24z m-60 -379 c1 -12 7 -38 15 -60 7 -21 9 -34 4 -29 -5 5 -18 40 -28 79 -15 51 -16 64 -5 50 8 -11 14 -29 14 -40z m133 -64 c18 -19 18 -22 3 -43 -23 -34 -20 -61 15 -109 35 -48 59 -101 59 -127 -1 -31 -30 16 -30 48 0 44 -43 71 -102 66 -27 -3 -59 -12 -73 -21 -22 -15 -25 -24 -26 -79 l-1 -62 -18 89 c-17 81 -18 147 -1 144 3 0 21 5 38 13 29 12 34 19 39 60 6 46 6 46 42 43 19 -1 44 -11 55 -22z m-131 -54 c-8 -8 -12 -9 -12 -1 0 6 -3 20 -6 30 -7 17 -6 17 12 1 14 -14 15 -20 6 -30z m272 -17 c-13 -26 -14 -35 -4 -41 8 -5 10 -15 5 -26 -4 -11 -11 -32 -16 -47 -9 -31 -8 -31 51 18 13 11 20 13 14 5 -6 -8 -10 -24 -10 -35 1 -11 -16 -38 -37 -59 -43 -44 -57 -38 -57 21 0 45 -17 83 -53 121 -29 30 -30 33 -15 48 15 15 17 15 27 -5 7 -11 9 -21 5 -21 -4 0 3 -11 16 -25 33 -35 40 -31 35 21 -4 41 -3 45 14 39 12 -4 21 0 25 11 4 9 9 15 11 12 3 -3 -2 -19 -11 -37z m-231 -222 c-8 -8 -16 -8 -30 0 -16 9 -14 10 12 11 21 0 26 -3 18 -11z m158 -122 c-7 -7 -17 -7 -33 1 -18 8 -19 11 -5 11 9 1 17 7 17 15 0 8 6 16 13 19 15 5 22 -32 8 -46z m80 39 c18 11 15 -78 -5 -120 -8 -17 -17 -48 -21 -69 -7 -35 -35 -67 -59 -67 -6 0 0 7 12 16 12 8 22 20 22 25 0 6 -10 3 -22 -5 -12 -9 -29 -16 -38 -16 -9 0 -2 9 15 20 17 11 33 32 37 47 3 16 13 53 22 83 9 30 16 66 17 80 0 14 3 19 6 12 2 -6 9 -10 14 -6z m-224 -45 c6 6 14 4 23 -5 10 -13 9 -17 -5 -22 -21 -9 -67 6 -73 24 -3 9 2 10 21 3 15 -6 28 -6 34 0z m158 -31 c-3 -5 -21 -9 -38 -9 l-32 1 30 8 c43 11 47 11 40 0z m-139 -25 c-11 -8 -22 -12 -25 -9 -6 6 19 24 34 24 6 -1 1 -7 -9 -15z m18 -125 l21 -25 -24 20 c-22 19 -72 105 -71 122 1 4 12 -14 27 -42 14 -27 35 -61 47 -75z"/>
<path d="M510 4151 c0 -6 9 -9 20 -8 11 1 20 5 20 9 0 4 -9 8 -20 8 -11 0 -20 -4 -20 -9z"/>
<path d="M490 3522 c-37 -4 -68 -22 -37 -22 9 0 17 -7 17 -15 0 -22 16 -18 44 10 28 28 25 32 -24 27z"/>
<path d="M530 3368 c0 -18 18 -34 28 -24 3 4 -2 14 -11 23 -16 16 -17 16 -17 1z"/>
<path d="M546 2695 c-20 -15 -20 -15 0 -29 10 -8 21 -12 24 -10 2 3 -2 9 -9 13 -7 5 -10 14 -7 20 4 6 12 8 18 5 7 -4 8 -2 4 4 -9 14 -7 15 -30 -3z"/>
<path d="M462 2630 c-18 -30 -15 -33 18 -13 34 19 39 33 12 33 -9 0 -23 -9 -30 -20z"/>
<path d="M543 2632 c1 -13 7 -18 19 -14 20 5 35 22 19 22 -5 0 -16 3 -25 6 -10 4 -14 0 -13 -14z"/>
<path d="M617 2615 c-11 -8 -26 -11 -35 -7 -15 5 -15 3 -3 -11 13 -17 42 -10 56 14 11 17 2 19 -18 4z"/>
<path d="M584 2564 c-33 -17 -64 -48 -64 -64 0 -5 10 -10 23 -9 12 0 16 3 10 6 -22 8 -14 21 16 28 22 5 28 11 24 22 -5 12 -1 14 15 9 12 -3 31 -9 42 -12 29 -8 24 3 -8 20 -25 13 -32 13 -58 0z"/>
<path d="M595 2510 c-28 -7 -28 -8 -5 -9 14 0 32 4 40 9 17 11 8 11 -35 0z"/>
</g>
<g id="layer103" fill="#493c4a" stroke="none">
<path d="M450 4494 c0 -5 -30 -8 -67 -6 -107 4 -247 -31 -295 -75 -22 -20 -23 -64 -3 -103 24 -47 117 -120 153 -120 17 0 33 4 37 10 8 13 74 3 102 -15 13 -9 23 -25 23 -40 0 -13 8 -31 18 -41 15 -16 17 -47 20 -287 2 -169 0 -278 -6 -291 -10 -19 -22 -202 -38 -558 -3 -76 -10 -138 -14 -138 -5 0 -8 -19 -8 -42 1 -77 -33 -128 -173 -260 -128 -120 -169 -176 -169 -232 0 -11 -7 -34 -15 -50 -26 -49 -19 -54 37 -31 13 5 18 2 18 -9 0 -21 31 -36 74 -36 32 0 66 -20 66 -40 0 -5 24 -36 53 -69 29 -32 69 -90 88 -127 19 -38 52 -99 73 -136 20 -37 46 -99 58 -139 11 -40 29 -93 41 -118 12 -25 24 -53 28 -62 4 -10 -4 -32 -23 -60 -18 -27 -29 -55 -28 -74 4 -73 6 -71 -60 -69 -33 2 -60 -1 -60 -4 1 -16 17 -29 41 -35 35 -9 42 -30 28 -81 -18 -64 -19 -158 -1 -178 9 -11 15 -43 17 -95 1 -43 5 -91 9 -108 16 -63 49 -135 62 -135 10 0 14 -16 14 -62 1 -92 24 -227 47 -273 11 -22 26 -62 33 -90 20 -76 54 -137 99 -178 38 -34 46 -37 104 -37 87 0 132 15 177 60 69 69 85 111 83 221 -1 96 -36 303 -55 326 -5 7 -6 18 -1 25 4 7 8 49 9 93 1 85 24 227 41 260 21 39 24 99 8 158 -12 47 -13 68 -4 100 6 22 8 53 5 69 -3 17 -1 30 8 35 15 9 36 46 36 62 0 6 -7 11 -15 11 -8 0 -15 -6 -15 -13 0 -8 -9 -22 -21 -33 -31 -28 -54 -8 -54 49 0 25 -4 49 -8 53 -4 4 -7 27 -7 51 0 37 6 49 38 81 21 20 51 43 67 51 17 7 42 20 57 27 14 8 32 14 40 14 7 0 46 32 87 71 131 127 156 228 107 433 -30 123 -29 129 45 166 40 21 139 136 139 161 0 25 -28 45 -42 31 -7 -7 -28 -12 -48 -13 -34 0 -58 -12 -117 -56 l-30 -22 -6 207 c-6 188 -5 212 12 257 10 28 21 76 25 108 3 32 13 75 22 95 43 99 55 165 49 257 -4 50 -13 125 -21 169 -17 92 -18 220 -3 263 5 17 28 45 50 62 50 41 50 62 -2 157 -37 67 -42 84 -47 160 -4 68 -10 92 -26 112 -12 15 -27 39 -34 55 -9 21 -18 27 -39 26 -27 -2 -27 -2 -3 -6 26 -5 40 -19 40 -42 0 -8 -6 -11 -15 -7 -18 7 -19 -4 -4 -38 9 -19 9 -32 1 -53 -11 -28 -20 -107 -27 -238 -2 -38 -4 -74 -6 -80 -2 -5 0 -34 4 -64 6 -39 2 -81 -12 -155 -11 -55 -25 -137 -31 -181 -6 -44 -15 -105 -20 -135 -9 -58 -15 -104 -26 -207 -5 -44 -10 -60 -19 -56 -16 6 -55 -77 -55 -118 0 -15 -5 -31 -10 -34 -6 -4 -8 -10 -5 -15 3 -5 -1 -26 -10 -46 -17 -41 -20 -94 -5 -94 15 0 12 -77 -4 -108 -8 -15 -21 -59 -30 -97 -8 -39 -19 -88 -25 -110 -5 -22 -15 -85 -21 -140 -5 -55 -15 -113 -20 -130 -5 -16 -11 -47 -15 -69 -3 -21 -15 -51 -26 -67 -24 -34 -23 -34 24 -14 77 32 69 5 -19 -70 -54 -47 -57 -48 -71 -29 -8 10 -19 18 -24 16 -6 -1 -6 5 1 17 16 30 12 36 -11 15 -15 -14 -22 -15 -28 -6 -6 10 -11 9 -21 -3 -9 -11 -9 -15 -1 -15 7 0 9 -5 5 -11 -5 -8 -9 -7 -14 1 -4 7 -15 10 -23 7 -9 -3 -17 -3 -19 2 -2 4 -24 17 -50 29 -51 24 -55 33 -33 72 21 38 19 70 -5 70 -11 0 -20 5 -20 10 0 6 15 10 34 10 43 0 98 43 94 74 -4 24 -87 54 -154 55 l-41 1 16 34 c14 29 22 35 56 39 l40 4 -42 1 c-34 2 -43 6 -43 20 0 10 6 24 13 31 10 11 7 12 -13 6 -33 -10 -81 -46 -157 -117 -34 -32 -67 -58 -74 -58 -8 0 -6 7 6 20 10 11 13 20 7 20 -23 0 -12 18 16 26 19 5 22 8 10 11 -9 2 -27 -1 -38 -7 -12 -6 -23 -10 -25 -8 -2 2 7 29 20 60 13 32 18 55 12 52 -16 -6 -67 -87 -67 -107 0 -10 -26 -24 -83 -43 -45 -15 -115 -42 -156 -61 -80 -36 -91 -39 -73 -21 7 7 12 16 12 22 0 5 -7 1 -15 -10 -19 -25 -19 -18 2 41 23 70 72 145 89 138 8 -3 14 0 14 7 0 6 -5 8 -12 4 -7 -4 -8 -3 -4 5 4 6 11 9 16 6 5 -3 28 6 52 20 24 14 76 41 115 61 64 32 71 38 58 51 -8 8 -16 20 -16 26 -4 37 1 76 11 102 l12 30 10 -27 c13 -37 25 -36 25 2 0 16 -3 27 -6 26 -11 -7 -8 96 22 744 2 27 8 38 28 47 36 18 89 6 89 -19 0 -18 2 -18 31 -3 35 19 33 33 -3 15 -22 -11 -22 -10 -4 4 11 9 23 16 28 16 4 0 8 5 8 10 0 6 -9 10 -20 10 -19 0 -20 7 -20 254 0 231 2 257 20 298 16 38 28 49 69 67 55 23 70 26 54 10 -11 -11 -6 -49 6 -49 4 0 32 7 62 16 161 48 240 135 177 195 -88 83 -216 127 -390 136 -69 4 -118 2 -118 -3z m22 -79 c2 -19 0 -35 -4 -35 -4 0 -8 16 -8 35 0 19 2 35 4 35 2 0 6 -16 8 -35z m947 -144 c0 -15 -3 -20 -6 -11 -3 8 -9 17 -14 20 -4 3 -10 19 -14 35 l-6 30 20 -24 c12 -13 21 -35 20 -50z m-908 11 c-6 -12 -11 -32 -11 -46 0 -33 -17 -33 -32 0 -14 30 0 60 26 58 9 -1 16 3 16 9 0 6 3 8 6 5 3 -4 1 -15 -5 -26z m25 -48 c-6 -7 -14 -10 -18 -7 -13 7 -9 41 5 46 16 5 27 -24 13 -39z m-27 -58 c58 1 70 -1 74 -16 9 -35 -9 -45 -85 -46 -80 -1 -95 10 -74 55 5 13 12 19 13 15 2 -5 34 -8 72 -8z m-29 -611 c0 -8 -4 -15 -10 -15 -5 0 -10 7 -10 15 0 8 5 15 10 15 6 0 10 -7 10 -15z m1044 -1048 c-2 -7 -14 -19 -27 -26 -21 -13 -21 -12 2 13 27 29 33 32 25 13z m-913 -144 c-40 -55 -112 -123 -124 -116 -7 4 3 18 28 37 21 17 54 48 74 69 42 44 50 48 22 10z m-77 -25 c-27 -24 -57 -51 -67 -61 -10 -10 -22 -16 -25 -12 -4 4 4 15 18 24 13 9 44 33 68 54 24 20 46 37 49 37 3 0 -16 -19 -43 -42z m-296 -72 c-22 -24 -35 -31 -40 -23 -4 7 -8 -1 -8 -18 1 -33 22 -69 35 -57 5 4 5 1 1 -5 -4 -7 -2 -14 3 -14 6 -1 17 -2 24 -3 6 -1 11 -8 9 -15 -2 -9 3 -11 13 -7 11 4 14 2 9 -6 -5 -8 -2 -9 10 -5 9 4 14 3 11 -2 -3 -5 4 -12 14 -16 13 -4 18 -12 14 -21 -5 -13 -10 -11 -32 9 -55 51 -117 85 -164 92 -46 6 -48 8 -33 24 9 10 16 24 17 32 0 8 4 4 9 -8 13 -31 26 -29 39 7 7 22 23 36 53 50 24 11 44 20 46 20 1 0 -12 -15 -30 -34z m263 -245 c32 -13 48 -26 52 -43 2 -12 14 -59 26 -103 11 -44 21 -88 21 -98 0 -25 -172 192 -180 228 -4 16 -11 39 -16 49 -7 18 -6 18 22 3 16 -9 50 -25 75 -36z m99 -48 c0 -7 -4 -13 -10 -13 -5 0 -10 6 -10 14 0 8 -3 23 -6 33 -5 16 -4 16 10 -1 9 -11 16 -26 16 -33z m257 -6 c12 5 10 0 -5 -15 -14 -14 -22 -34 -22 -54 0 -25 3 -29 10 -18 5 8 10 24 10 35 1 18 3 17 25 -8 l25 -28 -26 -46 c-14 -25 -36 -61 -48 -80 l-24 -34 -11 32 c-14 42 -14 59 3 78 16 19 33 121 17 106 -6 -6 -17 -28 -24 -50 -15 -43 -31 -55 -41 -29 -7 17 30 88 61 119 14 15 17 15 25 1 5 -9 15 -13 25 -9z m-123 -17 c23 -9 25 -12 14 -35 -12 -28 -18 -25 -36 18 -13 30 -13 31 22 17z m-75 -373 c1 -5 -3 -5 -9 -2 -5 3 -10 16 -9 28 0 21 1 21 9 2 5 -11 9 -24 9 -28z m7 -134 c-13 -32 -31 -5 -33 48 l-2 54 20 -43 c11 -24 18 -50 15 -59z m3 -40 c-10 -11 -10 -14 -1 -9 6 4 12 2 12 -3 0 -12 -23 -15 -33 -4 -8 8 11 33 25 33 6 0 4 -8 -3 -17z m-4 -43 c12 0 29 -39 20 -48 -7 -7 -45 19 -56 40 -10 18 -9 20 6 15 9 -4 22 -7 30 -7z m-27 -84 c-10 -7 -18 -18 -18 -25 0 -6 -4 -11 -10 -11 -6 0 -5 10 2 25 6 14 18 25 27 25 14 -1 14 -2 -1 -14z m122 -159 c0 -20 -1 -20 -17 -5 -15 16 -18 14 -39 -25 -12 -23 -27 -43 -33 -43 -6 -1 -15 -2 -21 -3 -5 0 -10 -6 -10 -12 0 -8 5 -8 15 1 8 7 15 8 15 2 0 -5 -6 -14 -13 -20 -23 -19 -36 17 -21 58 8 23 13 28 13 15 1 -18 3 -18 24 5 13 13 24 38 25 55 1 16 7 40 14 52 11 22 12 22 30 -18 10 -23 18 -51 18 -62z m-180 34 c0 -19 -17 -38 -25 -29 -7 7 7 48 16 48 5 0 9 -9 9 -19z m-68 -23 c-4 -28 -6 -30 -12 -13 -8 21 -3 45 9 45 4 0 5 -15 3 -32z m69 -61 c-8 -8 -11 -4 -11 14 0 33 14 47 18 19 2 -12 -1 -27 -7 -33z m23 -21 c-3 -21 -8 -35 -11 -32 -2 2 -1 20 3 40 3 21 8 35 11 32 2 -2 1 -20 -3 -40z m289 -217 c-6 -6 -7 3 -4 23 4 28 6 29 9 9 2 -13 0 -27 -5 -32z m-244 -154 c14 -61 38 -79 27 -20 -4 20 -4 45 -1 56 6 19 7 19 35 2 15 -10 40 -33 55 -51 27 -33 28 -35 12 -62 -28 -46 -21 -67 51 -155 l25 -30 -6 40 c-4 27 -16 49 -37 67 -33 30 -38 49 -16 67 10 9 19 3 40 -29 14 -22 29 -40 32 -40 4 0 3 26 -1 58 -5 46 -4 55 6 45 9 -9 16 -9 25 -2 9 8 11 5 7 -13 -4 -23 -4 -23 12 -3 16 19 17 19 10 -15 -7 -32 -6 -34 10 -20 17 14 17 13 6 -8 -6 -12 -10 -26 -7 -31 3 -5 -1 -14 -9 -21 -8 -7 -15 -19 -15 -28 0 -13 3 -12 20 3 11 10 20 15 20 10 0 -4 7 -2 15 5 9 8 15 9 15 2 0 -6 -4 -14 -10 -17 -5 -3 -10 -11 -10 -17 0 -6 6 -5 16 3 14 12 16 11 12 -6 -2 -11 -10 -19 -16 -17 -7 1 -11 -2 -10 -7 2 -5 -8 -24 -22 -42 -27 -37 -34 -95 -13 -117 19 -20 16 -84 -7 -138 -19 -42 -19 -46 -3 -33 10 8 21 19 25 24 16 21 7 -7 -9 -32 -10 -15 -12 -24 -5 -20 19 13 14 -8 -8 -28 -11 -10 -20 -14 -20 -10 0 5 -6 2 -12 -7 -7 -9 -24 -19 -38 -22 -14 -3 -19 -3 -12 0 24 11 12 20 -20 16 l-33 -4 35 24 c38 26 45 43 35 94 -5 30 -10 34 -38 35 l-32 1 34 10 c34 9 33 23 -2 30 -16 3 -26 19 -11 17 9 0 34 51 34 70 0 26 -34 127 -49 145 -15 18 -86 22 -96 6 -3 -5 -16 -15 -28 -20 -20 -10 -21 -10 -4 3 25 20 6 30 -21 11 -19 -13 -22 -25 -23 -82 l-1 -67 -20 90 c-24 104 -27 180 -9 198 10 10 12 8 11 -8 -4 -34 -1 -36 29 -21 16 9 31 12 35 9 3 -4 6 -1 6 6 0 8 -7 10 -19 6 -14 -4 -20 1 -26 22 -4 17 -2 29 4 31 6 2 11 11 11 20 0 15 -2 15 -10 2 -6 -9 -10 -10 -10 -3 0 6 -3 19 -7 29 -5 12 -3 15 6 9 10 -6 11 -2 6 16 -17 54 -17 55 -2 37 7 -10 19 -42 26 -73z m141 16 c14 -13 6 -10 -17 8 -24 18 -43 38 -43 44 0 7 8 3 18 -8 9 -11 28 -31 42 -44z m-60 -316 c0 -2 -11 -12 -25 -21 -24 -16 -65 -12 -65 6 0 5 6 7 13 5 9 -4 38 2 75 14 1 1 2 -1 2 -4z m215 -36 c10 -30 0 -33 -13 -4 -6 14 -7 25 -2 25 5 0 12 -9 15 -21z m-228 -120 c19 -17 16 -47 -7 -59 -18 -10 -24 -7 -21 12 0 4 -10 15 -24 24 -14 9 -25 19 -25 23 0 11 63 11 77 0z m18 -176 c8 -3 15 -10 15 -16 0 -30 -72 66 -84 113 -4 14 7 -1 24 -33 17 -32 37 -60 45 -64z"/>
<path d="M1202 4374 c-21 -14 -33 -62 -12 -49 6 3 10 1 10 -6 0 -6 8 -9 20 -6 37 10 62 -83 40 -149 -5 -16 -12 -144 -14 -284 -3 -155 -10 -293 -19 -352 -9 -53 -19 -142 -23 -199 -7 -104 -20 -158 -70 -284 -20 -51 -29 -98 -34 -171 -5 -61 -16 -123 -28 -156 -11 -29 -23 -76 -27 -103 -4 -28 -14 -87 -22 -132 -14 -74 -18 -83 -38 -83 -29 0 -37 10 -23 27 9 11 9 16 -3 23 -25 16 -132 104 -187 155 -110 101 -107 87 -178 842 -6 62 -6 62 -28 48 -13 -9 -31 -13 -40 -9 -9 3 -16 1 -16 -5 0 -6 14 -14 30 -18 17 -3 33 -10 36 -14 5 -9 28 -227 54 -507 6 -68 21 -154 33 -190 22 -71 26 -87 30 -141 2 -19 9 -38 17 -42 8 -4 38 -18 65 -31 28 -13 52 -27 54 -31 2 -5 33 -22 69 -39 l66 -29 -34 -22 -35 -22 55 -5 c30 -3 59 -3 63 1 9 7 30 102 41 184 4 28 18 88 31 135 13 47 26 127 29 178 4 61 12 105 25 130 38 74 69 198 81 317 9 99 36 300 56 415 2 14 3 77 2 140 -3 157 -2 276 2 331 3 41 6 47 27 47 14 0 23 -7 24 -17 0 -9 5 -1 10 16 7 25 6 39 -7 57 -8 14 -12 31 -8 38 4 7 -5 2 -19 -11 -26 -24 -27 -24 -27 -4 0 17 -6 20 -30 19 -17 -1 -35 -8 -40 -16 -5 -8 -12 -11 -17 -6 -8 8 17 26 52 38 20 6 20 6 0 7 -11 1 -31 -6 -43 -15z"/>
<path d="M468 3514 c-8 -7 3 -44 13 -44 4 0 19 11 33 25 l25 25 -33 0 c-18 0 -35 -3 -38 -6z"/>
<path d="M462 2630 c-18 -29 -15 -31 18 -12 34 19 39 32 12 32 -9 0 -23 -9 -30 -20z"/>
<path d="M540 2640 c0 -13 28 -25 38 -16 3 4 0 11 -8 16 -20 13 -30 12 -30 0z"/>
<path d="M615 2611 c-11 -5 -23 -7 -27 -4 -5 2 -8 -1 -8 -6 0 -16 36 -13 50 4 14 17 13 17 -15 6z"/>
<path d="M561 2551 c-26 -20 -17 -33 17 -24 19 5 20 8 10 21 -11 13 -9 15 15 10 15 -3 27 -1 27 3 0 16 -44 9 -69 -10z"/>
<path d="M445 2530 c-4 -6 7 -10 24 -10 17 0 31 5 31 10 0 6 -11 10 -24 10 -14 0 -28 -4 -31 -10z"/>
<path d="M525 2510 c-8 -13 -1 -24 14 -19 6 3 7 10 2 18 -6 10 -10 10 -16 1z"/>
</g>
<g id="layer104" fill="#6b4c46" stroke="none">
<path d="M450 4494 c0 -5 -30 -8 -67 -6 -107 4 -247 -31 -295 -75 -22 -20 -23 -64 -3 -103 24 -47 117 -120 153 -120 17 0 33 4 37 10 8 13 74 3 102 -15 13 -9 23 -25 23 -40 0 -13 7 -31 17 -40 13 -13 17 -41 19 -138 8 -273 6 -429 -5 -440 -6 -6 -10 -38 -9 -72 l2 -60 3 60 c2 32 9 65 15 73 7 8 10 58 9 133 -1 83 1 119 8 114 10 -6 16 28 12 63 -1 6 2 12 7 12 5 0 16 15 23 33 l14 32 7 -60 c4 -33 10 -116 14 -185 4 -69 11 -128 17 -132 11 -7 57 11 57 23 0 4 -9 5 -20 2 -20 -5 -20 0 -20 255 0 237 2 263 20 304 16 38 28 49 69 67 55 23 70 26 54 10 -11 -11 -6 -49 6 -49 4 0 32 7 62 16 161 48 240 135 177 195 -88 83 -216 127 -390 136 -69 4 -118 2 -118 -3z m50 -79 c0 -68 -10 -94 -27 -73 -11 13 -16 55 -14 110 1 20 6 26 21 25 18 -1 20 -8 20 -62z m30 -58 c-20 -78 -20 -87 -8 -82 13 5 42 -44 33 -53 -3 -3 -5 0 -5 6 0 7 -5 12 -11 12 -6 0 -8 -9 -3 -22 6 -22 6 -22 -16 2 -15 16 -21 19 -17 8 10 -28 -11 -31 -28 -4 -20 31 -16 57 10 71 21 11 26 21 33 72 2 18 8 31 12 28 5 -3 5 -20 0 -38z m60 -157 c-6 -11 -10 -28 -9 -38 4 -40 -1 -51 -18 -45 -9 4 -14 2 -11 -3 4 -5 -19 -9 -52 -9 -33 0 -56 4 -52 9 3 5 -2 7 -11 3 -22 -8 -31 24 -16 57 7 15 15 23 18 18 3 -5 34 -11 67 -14 52 -3 61 -2 56 11 -3 9 -1 12 6 7 6 -3 13 3 17 15 4 11 9 18 12 16 2 -3 0 -15 -7 -27z"/>
<path d="M1192 4368 c-14 -14 -16 -52 -2 -43 6 3 10 1 10 -6 0 -6 8 -9 20 -6 37 10 62 -83 40 -149 -5 -16 -12 -144 -14 -284 -3 -155 -10 -293 -19 -352 -9 -53 -19 -142 -23 -199 -7 -104 -20 -158 -70 -284 -20 -51 -29 -98 -34 -171 -5 -61 -16 -123 -28 -156 -11 -29 -23 -76 -27 -103 -4 -28 -14 -87 -22 -133 -15 -80 -17 -83 -42 -80 -14 2 -25 9 -23 16 3 15 -8 15 -30 -2 -28 -21 -22 -26 36 -26 63 0 53 -19 86 171 11 63 27 135 36 160 9 24 20 91 24 149 7 88 15 122 50 210 32 80 44 128 52 200 5 52 19 165 31 250 16 114 22 215 24 385 1 127 5 258 9 293 6 57 9 62 30 62 16 0 24 -6 25 -17 0 -10 5 -3 10 14 7 25 6 39 -7 57 -8 14 -12 31 -8 38 4 7 -5 2 -19 -11 -26 -24 -27 -24 -27 -4 0 17 -6 20 -30 19 -17 -1 -35 -8 -40 -16 -5 -8 -12 -11 -16 -7 -4 3 -1 13 6 22 15 18 9 20 -8 3z"/>
<path d="M1380 4354 c0 -10 -6 -14 -15 -10 -18 7 -19 -4 -4 -38 9 -19 9 -32 1 -53 -11 -28 -20 -107 -27 -238 -2 -38 -4 -74 -6 -80 -2 -5 0 -34 4 -64 6 -39 2 -81 -12 -155 -11 -55 -25 -137 -31 -181 -6 -44 -15 -105 -20 -135 -9 -58 -15 -104 -26 -207 -5 -44 -10 -60 -19 -56 -16 6 -55 -77 -55 -118 0 -15 -5 -31 -10 -34 -6 -4 -8 -10 -5 -15 3 -5 -1 -26 -10 -46 -17 -41 -20 -94 -5 -94 15 0 12 -77 -4 -108 -8 -15 -21 -59 -30 -97 -8 -39 -19 -88 -25 -110 -5 -22 -15 -85 -21 -140 -5 -55 -15 -113 -20 -130 -5 -16 -11 -47 -15 -69 -3 -21 -15 -51 -26 -67 -24 -34 -23 -34 24 -14 77 32 69 5 -19 -70 l-56 -48 -19 24 -20 24 7 -27 c4 -18 2 -28 -5 -28 -14 0 -14 30 0 67 l10 28 -30 -29 c-33 -32 -34 -59 -3 -83 8 -7 12 -16 8 -20 -8 -8 -47 38 -40 48 5 9 -31 40 -39 33 -3 -3 -18 2 -34 13 -15 10 -40 24 -56 31 -30 13 -33 26 -12 62 21 38 19 70 -5 70 -11 0 -20 5 -20 10 0 6 15 10 34 10 43 0 98 43 94 74 -4 24 -87 54 -154 55 l-41 1 16 34 c14 29 22 35 56 39 l40 4 -42 1 c-34 2 -43 6 -43 20 0 10 6 24 12 31 11 11 8 12 -12 6 -33 -10 -81 -46 -157 -117 -34 -32 -67 -58 -74 -58 -8 0 -6 7 6 20 10 11 13 20 7 20 -23 0 -12 18 16 26 19 5 22 8 10 11 -9 2 -27 -1 -38 -7 -12 -6 -23 -10 -25 -8 -2 2 7 29 20 60 13 32 18 55 12 52 -16 -6 -67 -87 -67 -106 0 -10 -30 -26 -92 -48 -137 -47 -209 -86 -201 -107 10 -29 34 -43 74 -43 35 0 69 -20 69 -40 0 -5 24 -36 53 -69 29 -32 69 -90 88 -127 19 -38 52 -99 73 -136 20 -37 46 -99 58 -139 11 -40 29 -93 41 -118 12 -25 24 -53 28 -62 4 -10 -4 -32 -23 -60 -18 -27 -29 -55 -28 -74 4 -73 6 -71 -60 -69 -33 2 -60 -1 -60 -4 1 -16 17 -29 41 -35 35 -9 42 -30 28 -81 -18 -64 -19 -158 -1 -178 9 -11 15 -43 17 -95 1 -43 5 -91 9 -108 16 -63 49 -135 62 -135 10 0 14 -16 14 -62 1 -92 24 -227 47 -273 11 -22 26 -62 33 -90 17 -63 53 -137 77 -155 17 -14 17 -14 2 5 -22 27 -49 81 -49 97 1 7 12 -8 25 -33 26 -50 87 -109 93 -90 2 6 9 11 16 11 27 0 66 41 66 68 0 55 -10 72 -44 73 l-31 1 34 10 c34 9 33 23 -3 30 -11 1 -19 6 -18 11 1 4 4 6 7 5 8 -4 35 52 35 71 0 26 -34 127 -49 145 -15 18 -86 22 -96 6 -3 -5 -16 -15 -28 -22 -20 -10 -21 -10 -8 5 12 15 11 17 -2 17 -28 0 -40 -38 -34 -109 7 -71 -7 -68 -18 4 -3 22 -13 68 -21 102 -15 62 -11 127 7 139 5 3 9 -6 9 -21 0 -25 0 -25 30 -10 37 19 39 28 4 15 -14 -6 -23 -6 -20 -2 9 15 10 76 2 101 -6 18 -5 22 5 16 8 -6 11 -4 7 6 -3 8 -8 25 -12 39 -6 22 -6 23 7 8 7 -10 19 -42 26 -73 13 -59 36 -78 26 -21 -4 19 -4 44 0 56 6 20 8 21 33 4 37 -23 81 -75 82 -95 0 -9 -7 -22 -15 -29 -25 -21 -17 -52 28 -112 32 -44 43 -53 45 -38 4 24 -23 77 -48 93 -23 14 -26 40 -6 56 10 9 19 3 40 -29 14 -22 29 -40 32 -40 4 0 3 26 -1 57 -6 49 -5 55 7 45 11 -8 17 -9 26 0 8 8 9 5 5 -13 -5 -24 -5 -24 11 -4 16 19 17 19 10 -15 -6 -32 -5 -34 11 -20 17 14 17 13 6 -8 -6 -12 -10 -26 -7 -31 3 -5 -1 -14 -9 -21 -8 -7 -15 -19 -15 -28 0 -13 3 -12 20 3 11 10 20 15 20 10 0 -4 7 -2 15 5 9 8 15 9 15 2 0 -6 -4 -14 -10 -17 -5 -3 -10 -11 -10 -17 0 -6 6 -5 16 3 14 12 16 11 12 -6 -2 -11 -10 -19 -16 -18 -7 2 -11 -1 -9 -6 1 -5 -9 -24 -23 -42 -27 -37 -34 -95 -13 -117 19 -20 16 -84 -7 -138 -19 -42 -19 -46 -3 -33 10 8 21 19 25 24 5 6 8 6 8 -2 0 -6 -5 -15 -10 -18 -7 -4 -7 -13 0 -26 8 -15 7 -26 -6 -49 -21 -34 -56 -45 -111 -34 -21 5 -44 7 -51 5 -8 -1 -19 1 -26 6 -6 4 -3 0 7 -10 22 -20 118 -24 180 -6 45 12 107 71 139 131 19 37 22 57 21 139 -1 96 -36 303 -55 326 -5 7 -6 18 -1 25 4 7 8 49 9 93 1 85 24 227 41 260 21 39 24 99 8 158 -12 47 -13 68 -4 100 6 22 8 53 5 69 -3 17 -1 30 8 35 15 9 36 46 36 62 0 6 -7 11 -15 11 -8 0 -15 -6 -15 -13 0 -8 -9 -22 -21 -33 -31 -28 -54 -8 -54 49 0 25 -4 49 -8 53 -4 4 -7 27 -7 51 0 37 6 49 38 81 21 20 51 43 67 51 17 7 42 20 57 27 14 8 32 14 40 14 7 0 46 32 87 71 131 127 156 228 107 433 -30 123 -29 129 45 166 40 21 139 136 139 161 0 25 -28 45 -42 31 -7 -7 -26 -12 -44 -12 -17 0 -42 -6 -56 -12 -35 -19 -96 -71 -74 -64 16 6 17 4 6 -9 -23 -28 -27 -1 -34 215 -6 186 -4 210 13 255 10 28 21 76 25 108 3 32 13 75 22 95 43 99 55 165 49 257 -4 50 -13 125 -21 169 -17 92 -18 220 -3 263 5 17 28 45 50 62 50 41 50 62 -2 157 -37 67 -42 84 -47 160 -3 59 -10 91 -21 102 -9 10 -13 13 -8 8 4 -6 7 -24 6 -40 0 -17 -3 -24 -6 -16 -3 8 -11 18 -17 22 -6 4 -10 25 -10 48 1 22 0 40 -2 40 -2 0 -4 -7 -4 -16z m125 -353 c5 -9 4 -12 -3 -8 -11 8 -62 91 -62 103 0 7 28 -34 65 -95z m60 -1461 c-3 -5 -11 -10 -16 -10 -6 0 -21 -12 -34 -27 -13 -16 -27 -25 -31 -21 -9 10 54 60 84 67 2 1 0 -3 -3 -9z m-954 -167 c-35 -50 -112 -124 -121 -118 -16 10 -1 30 41 55 22 14 51 40 65 58 30 39 44 43 15 5z m-77 -25 c-27 -24 -59 -54 -71 -67 -18 -19 -23 -20 -23 -8 0 9 9 21 19 27 11 5 41 28 66 50 25 22 49 40 52 40 3 0 -16 -19 -43 -42z m-296 -72 c-22 -24 -35 -31 -40 -23 -4 7 -8 -1 -8 -18 1 -33 22 -69 35 -57 5 4 5 1 1 -5 -4 -7 -2 -14 3 -14 6 -1 17 -2 24 -3 6 -1 11 -8 9 -15 -2 -9 3 -11 13 -7 11 4 14 2 9 -6 -5 -8 -2 -9 10 -5 9 4 14 3 11 -2 -3 -5 4 -12 14 -16 13 -4 18 -12 14 -21 -5 -13 -10 -11 -32 9 -55 51 -117 85 -164 92 -46 6 -48 8 -33 24 9 10 16 24 17 32 0 8 4 4 9 -8 13 -31 26 -29 39 7 7 22 23 36 53 50 24 11 44 20 46 20 1 0 -12 -15 -30 -34z m263 -245 c32 -13 48 -26 52 -43 2 -12 14 -59 26 -103 11 -44 21 -88 21 -98 0 -25 -172 192 -180 228 -4 16 -11 39 -16 49 -7 18 -6 18 22 3 16 -9 50 -25 75 -36z m99 -48 c0 -24 -18 -13 -24 15 -4 15 -9 36 -12 47 -2 11 4 4 15 -15 11 -19 20 -41 21 -47z m238 0 c6 -10 6 -27 0 -44 -5 -16 -8 -36 -5 -46 3 -12 7 -7 12 16 l8 34 24 -27 23 -27 -26 -46 c-14 -25 -36 -61 -48 -80 l-24 -34 -16 47 c-14 42 -14 48 0 58 14 10 33 70 34 104 0 27 -19 0 -36 -50 -15 -47 -18 -50 -30 -33 -18 25 -19 22 22 88 38 61 47 67 62 40z m-104 -23 c23 -9 25 -12 14 -35 -12 -28 -18 -25 -36 18 -13 30 -13 31 22 17z m-128 -15 c-4 -10 1 -15 14 -15 23 0 27 -18 5 -26 -8 -4 -13 -10 -10 -15 3 -4 12 -6 20 -2 18 6 45 -51 45 -97 0 -16 5 -30 10 -30 6 0 10 -8 9 -17 0 -11 -3 -13 -6 -5 -2 6 -9 12 -15 12 -6 0 -8 -7 -4 -15 4 -12 2 -13 -14 -3 -10 7 -16 16 -14 20 3 5 10 6 15 3 5 -4 9 -2 9 3 0 14 -29 36 -37 28 -3 -3 -1 -6 6 -6 7 0 9 -4 6 -10 -14 -23 -23 -6 -34 63 -6 39 -14 84 -17 100 -4 18 -2 27 6 27 7 0 10 -7 6 -15z m66 -252 c10 -9 18 -23 17 -32 0 -10 -4 -7 -10 7 -7 18 -14 22 -29 17 -14 -5 -20 -2 -20 9 0 21 19 20 42 -1z m-12 -43 c7 -14 7 -20 0 -20 -5 0 -10 -7 -10 -16 0 -8 4 -12 10 -9 6 3 7 -1 4 -9 -3 -9 -10 -16 -14 -16 -7 0 -20 48 -20 76 0 21 18 17 30 -6z m-1 -149 c15 -46 14 -61 -4 -61 -21 0 -32 33 -27 76 5 40 14 35 31 -15z m21 -91 c0 -19 -20 -27 -33 -13 -8 7 11 33 24 33 5 0 9 -9 9 -20z m-15 -40 c12 0 29 -39 20 -48 -7 -7 -45 19 -56 40 -10 18 -9 20 6 15 9 -4 22 -7 30 -7z m-27 -84 c-10 -7 -18 -18 -18 -25 0 -6 -4 -11 -10 -11 -6 0 -5 10 2 25 6 14 18 25 27 25 14 -1 14 -2 -1 -14z m122 -159 c0 -20 -1 -20 -17 -5 -15 16 -18 14 -39 -25 -12 -23 -27 -42 -32 -42 -6 0 -17 -7 -24 -15 -11 -12 -11 -12 5 -1 23 18 21 5 -5 -27 -14 -18 -19 -21 -14 -8 3 10 2 24 -3 30 -5 6 -3 25 5 46 8 23 13 28 13 15 1 -18 3 -18 24 5 13 13 24 38 25 55 1 16 7 40 14 52 11 22 12 22 30 -18 10 -23 18 -51 18 -62z m-175 22 c-4 -5 0 -21 9 -34 9 -13 15 -34 14 -47 -1 -13 2 -33 6 -45 4 -13 3 -23 -2 -23 -13 0 -22 24 -22 58 l-1 27 -14 -25 c-12 -22 -14 -23 -20 -7 -4 9 -3 23 2 30 6 6 13 21 17 31 7 20 7 20 -15 0 l-22 -19 8 25 c21 69 26 76 36 57 6 -9 7 -22 4 -28z m-69 5 c-3 -9 -6 -23 -7 -32 0 -13 -2 -13 -8 3 -9 23 -4 45 11 45 6 0 7 -7 4 -16z m377 -315 c-6 -6 -7 3 -4 23 4 28 6 29 9 9 2 -13 0 -27 -5 -32z m-103 -138 c14 -13 6 -10 -17 8 -24 18 -43 38 -43 44 0 7 8 3 18 -8 9 -11 28 -31 42 -44z m-60 -316 c0 -2 -11 -12 -25 -21 -24 -16 -65 -12 -65 6 0 5 6 7 13 5 9 -4 38 2 75 14 1 1 2 -1 2 -4z m215 -36 c10 -30 0 -33 -13 -4 -6 14 -7 25 -2 25 5 0 12 -9 15 -21z m-221 -131 c8 -13 8 -23 0 -35 -18 -28 -41 -27 -48 1 -3 14 -12 25 -18 23 -7 -1 -13 5 -15 14 -6 23 66 20 81 -3z m281 -131 c-8 -20 -24 -41 -34 -47 -29 -15 -39 -12 -15 4 11 8 26 33 34 56 7 22 17 37 22 32 5 -5 2 -25 -7 -45z"/>
<path d="M570 3525 c-21 -12 -22 -14 -6 -15 15 0 16 -3 6 -15 -7 -8 -21 -15 -32 -15 -10 0 -16 -4 -13 -10 9 -14 21 -12 39 6 15 14 16 14 14 -3 -1 -10 1 -34 5 -53 3 -19 18 -159 32 -310 33 -344 50 -410 130 -499 19 -21 32 -40 29 -43 -3 -3 6 -8 20 -12 13 -3 54 -31 91 -61 37 -30 72 -55 78 -55 7 0 -3 10 -20 23 -112 81 -219 181 -244 230 -34 64 -47 144 -73 427 -14 151 -29 303 -34 336 -6 51 -5 64 8 72 23 16 -1 13 -30 -3z"/>
<path d="M412 3309 c-1 -37 -5 -82 -8 -100 -5 -26 -4 -31 5 -23 8 7 11 41 8 100 -2 77 -3 80 -5 23z"/>
<path d="M399 3078 c-1 -84 -8 -173 -23 -297 -3 -24 -3 -41 1 -37 4 3 13 -6 20 -21 l13 -28 -7 30 c-8 36 -8 63 2 278 5 92 5 167 2 167 -4 0 -7 -42 -8 -92z"/>
<path d="M260 2583 c-56 -56 -58 -61 -18 -28 39 32 96 95 86 95 -2 0 -33 -30 -68 -67z"/>
<path d="M460 2625 c-19 -23 -8 -26 20 -5 19 15 21 20 9 20 -9 0 -22 -7 -29 -15z"/>
<path d="M545 2540 c-4 -6 7 -10 27 -10 25 0 29 3 18 10 -19 13 -37 13 -45 0z"/>
<path d="M445 2530 c-4 -6 5 -10 19 -10 14 0 26 5 26 10 0 6 -9 10 -19 10 -11 0 -23 -4 -26 -10z"/>
<path d="M124 2457 c-61 -63 -94 -120 -94 -160 1 -14 7 -6 19 25 22 54 81 138 118 168 14 11 24 22 21 25 -2 2 -31 -24 -64 -58z"/>
<path d="M655 2380 c-5 -9 113 -36 121 -27 3 3 -3 10 -13 15 -25 13 -102 22 -108 12z"/>
<path d="M11 2240 c-16 -37 -9 -47 21 -32 l23 12 -23 -6 c-22 -5 -23 -4 -12 16 6 11 10 25 8 31 -2 5 -9 -5 -17 -21z"/>
<path d="M855 328 c-2 -13 -3 -43 -1 -68 2 -25 4 -58 5 -75 1 -27 3 -28 13 -10 22 38 29 104 13 141 -16 40 -23 42 -30 12z"/>
</g>
<g id="layer105" fill="#986150" stroke="none">
<path d="M1216 4349 c-9 -13 -16 -28 -16 -34 0 -5 4 -4 9 4 17 26 40 -5 62 -84 7 -24 8 -20 4 18 -5 46 -4 47 13 31 15 -16 17 -16 20 -1 2 9 9 14 18 10 18 -7 18 6 -1 31 -12 16 -17 17 -30 6 -13 -11 -15 -9 -15 15 0 24 -2 26 -16 14 -13 -10 -17 -10 -23 0 -6 10 -13 7 -25 -10z"/>
<path d="M1413 4310 c8 -14 17 -61 20 -106 3 -54 12 -94 26 -122 12 -23 24 -42 26 -42 3 0 -4 19 -16 42 -15 29 -23 68 -27 126 -4 63 -10 89 -24 105 l-19 22 14 -25z"/>
<path d="M1397 4143 c-8 -15 9 -123 21 -135 18 -18 14 -32 -4 -17 -14 11 -18 10 -31 -6 -9 -12 -12 -30 -8 -45 4 -14 7 -47 8 -75 2 -37 6 -50 17 -50 8 0 15 -8 14 -17 -4 -84 -7 -110 -11 -85 -3 17 -10 27 -21 26 -9 0 -12 -3 -5 -5 7 -3 3 -14 -12 -28 -23 -23 -31 -54 -39 -156 -2 -25 -9 -58 -15 -73 -12 -30 -11 -54 3 -76 6 -9 5 -12 -1 -8 -6 4 -13 -17 -16 -53 -4 -32 -16 -96 -27 -142 -30 -120 -29 -116 -45 -94 -14 18 -15 18 -26 -10 -6 -16 -15 -47 -19 -69 -4 -22 -13 -68 -21 -102 -9 -46 -10 -66 -2 -74 17 -17 43 30 49 87 9 75 26 108 46 88 4 -3 0 -20 -7 -39 -8 -18 -19 -63 -25 -101 -6 -38 -24 -97 -40 -131 -18 -40 -24 -63 -17 -63 7 0 6 -4 -3 -10 -11 -7 -12 -10 -2 -10 11 0 13 -21 9 -103 -3 -56 -10 -120 -15 -142 -6 -22 -14 -57 -17 -78 -4 -22 -20 -54 -38 -75 -18 -20 -38 -48 -44 -62 -10 -22 -33 -89 -33 -96 0 -1 18 0 40 3 22 3 40 3 40 -1 0 -3 -11 -24 -24 -45 -30 -46 -112 -104 -138 -95 -13 4 -18 0 -18 -15 0 -11 -7 -27 -15 -35 -12 -12 -13 -20 -5 -36 8 -16 4 -30 -22 -75 -18 -30 -40 -69 -50 -86 l-16 -30 -21 58 c-12 32 -29 74 -38 93 -15 33 -15 36 6 72 26 45 26 58 2 58 -10 0 -24 6 -31 14 -6 8 -21 16 -32 18 -36 5 -39 40 -8 86 16 23 27 50 26 60 -3 21 -41 41 -81 43 -16 1 5 5 47 8 62 6 82 12 103 31 33 31 32 46 -4 65 -27 13 -135 32 -155 27 -5 -2 -6 3 -3 10 20 48 35 68 52 71 18 4 17 4 -2 6 -25 1 -31 29 -11 49 7 7 9 12 4 12 -24 0 -114 -67 -189 -142 -27 -26 -53 -45 -59 -42 -5 3 -2 14 8 25 9 10 13 19 8 19 -5 0 -17 7 -27 14 -16 13 -16 16 8 69 35 79 5 64 -36 -18 -27 -55 -35 -64 -70 -74 -22 -7 -37 -16 -34 -22 4 -5 -1 -12 -10 -15 -9 -4 -13 -13 -10 -24 7 -23 -37 -54 -54 -37 -8 8 -11 7 -11 -5 0 -9 16 -34 36 -55 20 -21 33 -31 29 -23 -4 8 2 4 13 -9 11 -13 24 -21 31 -17 6 4 11 3 11 -1 0 -13 59 -45 70 -38 5 3 2 -7 -7 -22 -15 -28 -15 -31 18 -98 26 -53 42 -74 66 -85 18 -8 35 -22 38 -31 3 -9 15 -27 26 -40 11 -13 29 -34 40 -47 10 -12 19 -27 19 -32 0 -6 4 -10 9 -10 12 0 33 -113 25 -135 -7 -16 -8 -16 -16 5 -5 13 -11 21 -14 18 -2 -3 0 -17 7 -30 9 -20 7 -32 -9 -62 -17 -31 -20 -33 -25 -16 -3 13 -1 18 6 13 7 -4 0 9 -14 28 -15 19 -37 69 -49 109 -12 41 -38 104 -57 140 -99 180 -105 194 -94 198 6 2 11 8 11 14 0 6 -6 8 -14 5 -7 -3 -26 7 -41 23 -19 20 -23 29 -13 32 8 3 0 12 -20 22 -18 9 -40 32 -49 51 -16 34 -36 45 -83 45 -14 0 -36 7 -48 16 -12 8 -22 11 -22 5 0 -16 35 -31 74 -31 32 0 66 -20 66 -40 0 -5 24 -36 53 -69 29 -32 69 -90 88 -127 19 -38 52 -99 73 -136 20 -37 46 -99 58 -139 11 -40 29 -93 41 -118 12 -25 24 -53 28 -62 4 -10 -4 -32 -23 -60 -18 -27 -29 -55 -28 -74 4 -73 6 -71 -60 -69 -33 2 -60 -1 -60 -4 1 -16 17 -29 41 -35 35 -9 42 -30 28 -81 -18 -64 -19 -158 -1 -178 9 -11 15 -43 17 -95 1 -43 5 -91 9 -108 16 -63 49 -135 62 -135 10 0 14 -16 14 -62 1 -92 24 -227 47 -273 11 -22 26 -62 33 -90 14 -55 54 -140 69 -150 6 -3 -1 14 -14 37 -13 24 -30 66 -38 94 l-15 51 40 -3 c44 -3 58 -15 58 -51 0 -16 -8 -25 -26 -29 -17 -4 -23 -11 -20 -21 3 -8 6 -18 6 -23 0 -5 12 -22 26 -39 31 -37 64 -40 113 -10 31 19 33 23 27 57 -3 20 -6 43 -6 51 0 9 -7 11 -24 7 -34 -8 -41 6 -9 20 26 12 27 12 5 13 -34 1 -38 28 -8 52 14 11 26 26 26 33 0 27 -41 140 -57 158 -23 25 -66 22 -101 -7 -36 -30 -46 -32 -32 -5 9 16 8 18 -5 14 -8 -4 -18 -17 -21 -30 -7 -29 3 -64 14 -47 4 6 21 14 37 18 l30 7 -30 -21 c-33 -23 -27 -26 25 -11 l35 9 -29 -23 c-28 -24 -53 -24 -68 -2 -4 6 -8 -11 -8 -38 0 -27 -3 -47 -6 -43 -8 8 -44 176 -51 240 -6 49 19 137 39 137 5 0 6 10 2 23 -11 33 -13 97 -3 97 13 0 26 -30 39 -92 7 -32 17 -58 21 -58 11 0 -1 80 -17 113 -12 27 -12 28 9 21 12 -3 29 -14 39 -24 9 -9 33 -27 53 -40 20 -12 34 -25 31 -28 -3 -3 -1 -11 5 -18 8 -10 5 -22 -10 -48 -20 -32 -21 -37 -7 -68 19 -42 40 -68 55 -68 21 0 11 31 -19 62 -35 35 -37 48 -11 72 19 17 20 16 40 -21 l20 -38 -1 70 c-1 48 4 80 15 100 l16 30 -5 -32 c-4 -18 -3 -40 0 -49 6 -16 8 -15 21 2 14 19 14 19 15 -1 0 -17 2 -18 11 -5 8 11 9 4 6 -28 -4 -35 -2 -42 9 -38 15 6 19 -6 7 -18 -8 -8 -32 -76 -27 -76 2 0 17 13 32 28 15 15 24 23 20 18 -12 -16 -9 -28 4 -19 7 4 5 -5 -5 -20 -18 -27 -11 -37 11 -15 7 7 12 9 12 5 0 -16 -29 -63 -49 -81 -21 -19 -30 -42 -12 -31 13 7 26 -80 15 -97 -5 -7 -9 -26 -9 -43 -1 -16 -5 -46 -9 -65 -8 -31 -7 -33 8 -21 14 12 15 10 10 -18 -13 -66 32 -24 56 52 16 52 36 34 34 -30 -2 -65 -53 -125 -118 -142 -56 -14 -141 -14 -169 0 -21 10 -21 10 -3 -5 23 -19 121 -21 179 -5 63 17 158 131 156 186 0 16 -1 16 -9 -2 -7 -16 -9 -17 -9 -3 -1 9 2 24 5 33 5 13 9 14 15 3 15 -22 0 149 -22 262 -12 58 -25 110 -31 117 -5 7 -6 18 -1 25 4 7 8 49 9 93 1 85 24 227 41 260 21 39 24 99 8 158 -12 47 -13 68 -4 100 6 22 8 53 5 69 -3 17 -1 30 8 35 15 9 36 46 36 62 0 6 -7 11 -15 11 -8 0 -15 -6 -15 -13 0 -8 -9 -22 -21 -33 -31 -28 -54 -8 -54 49 0 25 -4 49 -8 53 -4 4 -7 27 -7 51 0 37 6 49 38 81 21 20 51 43 67 51 17 7 42 20 57 27 14 8 32 14 40 14 7 0 46 32 87 71 131 127 156 228 107 433 -30 123 -29 129 45 166 40 21 139 136 139 161 0 25 -28 45 -42 31 -7 -7 -28 -12 -47 -13 -35 0 -59 -12 -118 -56 l-30 -22 -6 207 c-6 188 -5 212 12 257 10 28 21 76 25 108 3 32 13 75 22 95 43 99 55 165 49 257 -4 50 -13 125 -21 169 -17 92 -18 220 -3 263 5 17 28 45 50 62 40 33 51 69 29 101 -8 11 -9 7 -5 -15 5 -26 4 -27 -4 -7 -6 12 -16 22 -23 22 -16 0 -41 48 -57 107 -11 42 -26 61 -34 46z m-32 -695 c-4 -71 -3 -68 -21 -68 -10 0 -14 6 -10 18 2 9 8 33 11 52 14 69 24 67 20 -2z m204 -905 c-31 -40 -72 -63 -157 -88 -64 -20 -60 0 9 45 70 45 107 54 59 14 -43 -37 -29 -43 17 -8 34 26 71 50 82 53 2 1 -3 -7 -10 -16z m-948 -160 c-5 -10 -33 -44 -61 -75 -51 -57 -80 -73 -80 -43 0 18 -17 20 -22 3 -4 -12 -28 -3 -28 12 0 4 19 19 43 33 23 14 53 37 66 51 14 14 29 26 34 26 6 0 -11 -21 -36 -47 -26 -26 -44 -49 -42 -51 7 -7 70 44 97 77 25 33 44 41 29 14z m-223 -93 c3 -8 0 -10 -9 -5 -8 4 -1 -3 14 -16 l28 -24 -41 -2 c-43 -3 -47 2 -25 31 8 10 12 23 8 29 -3 5 0 8 7 5 8 -2 16 -10 18 -18z m152 -176 c0 -20 -7 -17 -20 6 -9 16 -8 18 5 14 8 -4 15 -12 15 -20z m-49 -83 c32 -13 48 -26 52 -43 2 -12 14 -59 26 -103 11 -44 21 -88 21 -98 0 -25 -172 192 -180 228 -4 16 -11 39 -16 49 -7 18 -6 18 22 3 16 -9 50 -25 75 -36z m83 -3 c9 -17 16 -39 16 -49 0 -10 5 -21 10 -24 6 -4 8 -11 5 -16 -4 -5 1 -9 9 -9 19 0 21 -16 4 -26 -7 -5 -4 -10 10 -15 25 -9 42 -46 42 -88 0 -15 5 -32 12 -39 9 -9 19 -72 11 -72 -2 0 -12 9 -23 20 -21 21 -40 26 -40 11 0 -5 8 -12 18 -15 27 -9 54 -64 42 -87 -6 -10 -17 -19 -25 -19 -8 0 -15 -4 -15 -10 0 -5 -4 -10 -10 -10 -11 0 -18 39 -24 125 -7 105 -39 270 -66 340 -13 35 5 23 24 -17z m150 -68 c23 -9 25 -12 14 -35 -12 -28 -18 -25 -36 18 -13 30 -13 31 22 17z m-75 -455 c12 -31 21 -73 21 -95 0 -23 7 -45 17 -56 16 -15 16 -17 -2 -30 -26 -19 -31 -18 -54 15 -28 38 -27 54 2 46 15 -4 18 -3 8 3 -10 8 -11 14 -1 31 11 21 10 22 -9 11 -20 -10 -26 -6 -21 15 7 28 6 71 -2 76 -10 6 0 39 12 39 5 0 18 -25 29 -55z m60 -137 c1 -5 -3 -8 -9 -8 -5 0 -10 12 -9 28 0 24 1 25 9 7 5 -11 9 -23 9 -27z m-152 -65 c0 -21 -15 -43 -30 -43 -5 0 -2 10 9 22 17 19 17 21 2 15 -18 -6 -24 3 -11 16 12 13 30 7 30 -10z m91 3 c2 -2 -13 -21 -32 -42 -48 -52 -51 -65 -31 -132 10 -31 18 -61 19 -67 2 -5 12 11 23 36 12 26 26 50 33 54 9 6 9 3 1 -13 -18 -34 -12 -49 9 -22 11 14 20 37 20 51 0 15 8 37 19 50 l18 23 16 -52 c14 -51 13 -97 -3 -87 -4 3 -11 -11 -14 -30 -4 -19 -11 -35 -15 -35 -8 0 -37 -61 -44 -95 -4 -15 -5 -14 -6 6 0 15 11 52 25 83 14 32 24 60 21 63 -8 7 -67 -88 -67 -109 0 -9 -5 -20 -11 -24 -6 -3 -9 -20 -6 -37 3 -26 2 -28 -9 -13 -7 10 -17 15 -22 12 -5 -3 -16 2 -23 11 -10 12 -10 14 -1 9 18 -11 15 2 -9 35 -15 22 -20 41 -17 73 1 24 0 42 -4 39 -14 -8 -9 25 12 79 11 29 20 65 20 81 0 15 5 27 11 27 6 0 9 9 6 20 -4 18 -1 19 26 14 17 -3 33 -7 35 -8z m52 -16 c0 -5 -10 -15 -22 -21 -23 -12 -23 -12 -4 10 21 23 26 26 26 11z m-140 -49 c0 -4 -9 -20 -21 -34 -11 -15 -23 -43 -26 -62 -7 -45 -20 -54 -29 -20 -4 17 -1 32 10 44 9 10 16 26 16 37 0 11 5 25 12 32 14 14 38 16 38 3z m337 -367 c-3 -19 -10 -41 -17 -47 -10 -10 -11 -4 -5 28 4 22 9 43 11 47 11 17 14 6 11 -28z m-267 -6 c0 -6 -7 -5 -15 2 -8 7 -15 17 -15 22 0 6 7 5 15 -2 8 -7 15 -17 15 -22z m54 -52 c14 -24 50 -65 81 -91 43 -37 52 -49 42 -60 -7 -7 -16 -10 -22 -7 -5 3 -4 7 2 9 7 3 -16 32 -50 66 -34 34 -67 77 -74 95 -15 44 -10 40 21 -12z m-33 -21 c8 -16 6 -15 -10 4 -12 13 -21 28 -21 35 0 12 14 -5 31 -39z m-81 -94 c0 -11 -4 -10 -15 5 -8 10 -14 26 -14 34 0 11 3 10 14 -4 8 -11 15 -27 15 -35z m269 -8 c-1 -39 -2 -43 -9 -23 -12 36 -12 70 0 70 6 0 10 -21 9 -47z m-165 -369 c20 -8 21 -34 2 -34 -17 0 -38 24 -29 33 8 8 8 8 27 1z"/>
<path d="M645 1681 c-3 -6 -2 -11 3 -11 16 0 23 -31 11 -46 -7 -8 -7 -14 -1 -14 17 0 29 24 23 49 -7 27 -25 38 -36 22z"/>
<path d="M576 3525 c-11 -8 -14 -15 -8 -15 7 0 12 -10 12 -22 0 -13 -4 -18 -8 -12 -4 6 -17 7 -32 3 -23 -6 -11 -13 17 -10 18 2 27 -20 34 -84 l6 -60 1 55 c0 30 -2 73 -6 95 -6 31 -4 43 8 52 22 18 -1 15 -24 -2z"/>
<path d="M133 2265 c-70 -32 -96 -53 -53 -42 11 3 18 1 14 -4 -3 -5 0 -9 6 -9 7 0 14 9 17 20 6 24 21 27 19 4 -2 -31 22 -26 29 6 4 18 17 36 33 45 50 27 7 14 -65 -20z"/>
<path d="M921 350 c0 -8 4 -24 9 -35 5 -13 9 -14 9 -5 0 8 -4 24 -9 35 -5 13 -9 14 -9 5z"/>
<path d="M856 316 c-4 -15 -3 -32 0 -38 4 -7 6 -32 5 -57 -2 -36 0 -43 10 -34 19 19 23 114 6 137 -13 18 -14 18 -21 -8z"/>
</g>
<g id="layer106" fill="#807a8e" stroke="none">
<path d="M450 4494 c0 -5 -28 -8 -62 -7 -109 5 -252 -31 -300 -74 -22 -20 -23 -64 -3 -103 24 -47 117 -120 153 -120 17 0 33 4 37 10 8 13 74 3 102 -15 13 -9 23 -25 23 -40 0 -13 7 -31 17 -40 18 -18 23 -110 23 -396 0 -78 2 -140 4 -138 2 2 6 113 8 247 2 152 7 242 13 242 6 0 3 5 -5 10 -13 9 -13 11 0 21 13 9 12 10 -2 5 -12 -3 -18 0 -18 10 0 8 -5 12 -10 9 -16 -10 -24 24 -11 52 9 19 9 29 0 39 -7 8 -8 18 -4 22 4 4 10 2 12 -4 11 -31 31 -42 84 -46 52 -4 56 -3 51 15 -3 13 -1 18 6 13 6 -3 16 3 22 15 7 11 14 18 17 15 3 -3 -2 -17 -12 -32 -9 -14 -14 -35 -12 -46 7 -23 -2 -50 -13 -43 -4 3 -11 -23 -14 -58 -8 -74 -3 -504 6 -513 4 -3 15 -1 25 5 17 10 17 10 1 11 -17 0 -18 19 -18 259 0 236 2 262 20 303 16 38 28 49 69 67 55 23 70 26 54 10 -11 -11 -6 -49 6 -49 4 0 32 7 62 16 161 48 240 135 177 195 -88 83 -216 127 -390 136 -69 4 -118 2 -118 -3z m34 -10 c12 -5 16 -20 16 -63 0 -31 -3 -66 -6 -79 -6 -22 -7 -22 -20 -4 -13 19 -19 62 -16 120 2 35 3 35 26 26z m47 -45 c-9 -23 -10 -22 -10 11 -1 23 2 31 9 24 7 -7 7 -19 1 -35z m-3 -93 c-10 -39 -10 -49 1 -56 8 -4 15 -26 15 -49 1 -40 -6 -52 -19 -31 -5 8 -11 7 -20 0 -11 -9 -18 -5 -34 21 l-20 33 34 38 c27 29 35 47 35 75 0 26 3 34 10 27 8 -8 7 -25 -2 -58z m-118 -160 c-1 -19 -29 38 -29 59 0 14 4 10 14 -14 8 -18 15 -38 15 -45z"/>
<path d="M1216 4351 c-3 -5 1 -15 10 -22 17 -14 32 -45 44 -94 l8 -30 1 31 c1 16 -4 35 -11 42 -17 17 -2 28 17 12 8 -7 15 -8 15 -3 0 13 -34 43 -48 43 -7 0 -12 7 -12 15 0 16 -16 20 -24 6z"/>
<path d="M1415 4311 c6 -7 13 -44 16 -80 l6 -66 1 61 c2 47 -2 67 -15 81 -10 10 -13 12 -8 4z"/>
<path d="M1255 4148 c-3 -18 -7 -143 -9 -278 -3 -147 -10 -284 -19 -342 -9 -53 -19 -142 -23 -199 -7 -99 -20 -155 -63 -268 -11 -30 -19 -56 -17 -58 5 -5 62 143 75 194 5 21 12 76 16 123 3 47 16 155 27 240 15 115 21 214 22 387 0 128 0 233 -1 233 -1 0 -5 -15 -8 -32z"/>
<path d="M1441 4142 c-1 -22 34 -102 44 -102 3 0 -2 15 -11 33 -10 17 -21 46 -25 62 -6 24 -7 26 -8 7z"/>
<path d="M1516 3978 c7 -30 -11 -69 -29 -63 -6 3 -17 1 -23 -3 -14 -9 -39 -54 -36 -65 1 -4 -3 -38 -9 -75 -9 -57 -8 -85 10 -191 21 -126 29 -329 10 -283 -5 13 -6 34 -3 47 3 12 1 26 -5 29 -7 5 -8 1 -5 -9 5 -11 0 -18 -14 -22 -11 -2 -23 -16 -26 -29 -4 -13 -12 -21 -19 -18 -8 3 -13 -5 -15 -20 -1 -14 -13 -37 -27 -52 -16 -17 -25 -39 -25 -59 0 -18 -6 -38 -14 -45 -11 -8 -13 -24 -9 -59 4 -34 1 -57 -11 -79 -25 -49 -37 -125 -41 -267 -2 -72 -6 -146 -9 -165 -3 -19 -8 -57 -11 -85 -17 -167 -24 -204 -43 -231 -30 -41 -38 -80 -18 -87 30 -12 16 -38 -59 -112 -85 -83 -108 -95 -135 -70 -20 18 -24 14 -34 -27 -3 -16 -11 -28 -17 -28 -6 0 -1 -13 10 -28 l20 -29 -20 -44 c-12 -24 -26 -55 -32 -69 -6 -14 -16 -32 -23 -40 -7 -8 -14 -24 -16 -35 -4 -18 -5 -18 -16 5 -6 14 -28 68 -48 120 l-37 94 22 39 c13 21 21 40 19 41 -2 2 -23 10 -48 18 -36 12 -48 22 -66 58 -22 43 -22 45 -3 58 26 18 24 49 -3 63 -21 12 -98 88 -98 98 0 2 12 -6 26 -20 22 -20 36 -24 90 -24 56 0 67 3 91 28 31 30 25 42 -27 52 -14 3 -44 10 -67 15 -23 5 -50 7 -59 3 -14 -5 -14 0 6 34 12 23 20 47 18 54 -3 8 -1 24 3 37 17 44 -23 22 -127 -72 -69 -62 -63 -73 8 -14 29 24 62 50 73 58 20 15 20 15 0 -10 -11 -14 -38 -42 -60 -62 -22 -20 -34 -37 -27 -38 8 0 38 25 68 55 95 98 59 31 -46 -85 -27 -30 -33 -33 -43 -20 -7 8 -22 14 -34 12 -32 -5 -52 44 -26 64 12 9 14 13 5 14 -7 0 -20 7 -28 15 -13 13 -13 19 -1 47 39 88 22 88 -20 0 -14 -31 -31 -59 -36 -61 -5 -2 5 -12 22 -22 18 -11 36 -30 41 -43 5 -13 14 -27 19 -31 6 -3 18 -21 27 -38 9 -18 11 -27 4 -20 -14 13 -63 -4 -54 -19 11 -18 -52 18 -78 44 -16 15 -28 24 -28 20 0 -5 -17 -14 -37 -20 -31 -10 -39 -9 -46 3 -9 17 -27 20 -27 6 0 -6 16 -27 36 -48 20 -21 33 -31 29 -23 -4 10 -1 9 8 -2 8 -10 17 -15 20 -11 4 3 7 1 7 -6 0 -7 4 -9 10 -6 5 3 10 2 10 -3 0 -9 59 -39 71 -35 3 1 7 -21 8 -50 1 -28 5 -54 9 -57 4 -3 12 -14 18 -25 6 -11 20 -25 32 -31 12 -6 51 -49 86 -96 61 -79 66 -90 77 -160 11 -73 10 -76 -18 -132 l-29 -58 -27 64 c-14 34 -33 90 -42 123 -10 33 -33 89 -52 125 -108 197 -105 192 -91 201 11 7 10 9 -1 9 -8 0 -28 12 -43 27 -29 28 -37 49 -15 38 6 -3 3 0 -7 7 -19 12 -41 34 -86 86 -10 12 -25 22 -32 21 -7 0 -3 -5 9 -11 13 -6 25 -19 29 -30 3 -11 29 -45 58 -77 28 -33 68 -90 87 -127 19 -38 52 -99 73 -136 20 -37 46 -99 58 -139 11 -40 29 -93 41 -118 12 -25 24 -53 28 -62 4 -10 -4 -32 -23 -60 -18 -27 -29 -55 -28 -74 4 -73 6 -71 -60 -69 -33 2 -60 -1 -60 -4 1 -16 17 -29 41 -35 35 -9 42 -30 28 -81 -18 -67 -19 -158 -2 -178 10 -12 16 -43 18 -95 1 -43 5 -91 9 -108 16 -63 49 -135 62 -135 10 0 14 -16 14 -62 1 -92 24 -227 47 -273 11 -22 26 -62 33 -90 15 -56 54 -140 70 -150 5 -3 1 9 -10 27 -20 34 -42 91 -54 141 -5 22 -4 27 6 21 6 -4 26 -8 42 -8 58 -2 72 -86 14 -86 -15 0 -18 -5 -13 -22 8 -29 36 -68 57 -82 21 -13 94 9 107 32 5 9 6 35 2 57 -6 36 -10 40 -33 37 -28 -3 -46 12 -28 23 7 4 7 12 0 24 -7 14 -4 24 15 41 14 13 25 33 25 44 0 20 -36 116 -53 143 -14 23 -69 15 -99 -14 -31 -29 -46 -26 -29 6 10 17 9 20 -4 15 -19 -8 -30 -48 -20 -71 8 -17 8 -17 12 0 3 10 14 17 29 17 31 0 40 -3 36 -13 -1 -4 10 -4 25 -1 l28 7 -24 -26 c-13 -15 -34 -30 -45 -33 -21 -7 -20 -7 1 -15 34 -12 19 -43 -18 -35 -17 3 -29 1 -33 -7 -7 -18 -25 12 -31 53 -3 19 -14 74 -26 123 -16 69 -18 94 -10 120 6 17 9 46 7 62 -2 17 -4 38 -5 48 0 9 -12 23 -26 29 -27 12 -35 31 -9 21 14 -5 15 -3 4 16 -18 35 -4 36 16 2 19 -32 38 -39 50 -19 4 6 3 8 -3 5 -6 -4 -13 3 -17 16 -9 33 -8 37 12 30 14 -6 15 -4 5 9 -23 27 -2 27 24 0 l25 -27 -21 38 c-24 43 -26 51 -10 41 8 -5 8 -1 0 14 -6 11 -8 28 -4 38 4 12 3 15 -6 10 -6 -4 -19 -2 -28 6 -15 12 -15 11 -3 -12 12 -24 12 -24 -6 -8 -16 16 -23 42 -25 95 -1 13 -4 21 -8 19 -4 -3 -7 4 -7 15 0 10 4 19 9 19 5 0 6 17 2 38 -4 26 -1 52 11 81 9 23 14 44 11 47 -7 8 -47 -61 -47 -82 0 -11 -4 -25 -9 -33 -7 -11 -11 -5 -16 22 -5 23 -3 42 4 51 9 11 9 15 -1 19 -9 3 -6 11 10 26 12 12 20 26 17 30 -2 5 2 14 11 21 9 9 11 16 5 20 -7 4 -3 20 10 46 12 21 19 29 16 17 -6 -26 5 -30 23 -8 10 12 16 13 27 3 12 -10 13 -7 7 17 -6 24 -5 27 11 21 14 -5 16 -4 7 7 -9 10 -8 17 0 25 16 16 -4 15 -21 0 -11 -11 -12 -8 -6 17 12 51 13 80 4 86 -11 6 -1 39 11 39 13 0 42 -81 50 -140 l7 -55 2 47 c1 29 -10 78 -29 130 -17 51 -31 112 -34 158 -7 101 -20 179 -46 275 -12 44 -23 88 -25 97 -2 9 -11 28 -20 42 -16 24 -16 26 -1 26 18 0 25 -13 30 -51 1 -13 12 -43 24 -66 13 -24 20 -43 16 -43 -3 0 5 -16 20 -34 24 -32 25 -36 9 -45 -16 -9 -16 -10 3 -11 24 0 45 -39 49 -90 1 -16 7 -35 12 -42 6 -7 11 -28 11 -46 l1 -33 -26 25 c-14 14 -31 26 -37 26 -6 0 -1 -8 12 -18 34 -27 54 -70 42 -93 -6 -10 -15 -19 -20 -19 -18 0 -9 -53 21 -140 16 -47 34 -112 40 -144 5 -33 16 -82 24 -109 20 -66 20 -123 0 -131 -8 -3 -15 0 -16 7 0 7 -8 -10 -18 -38 -10 -27 -22 -49 -27 -47 -5 2 -10 -5 -12 -15 -3 -15 -1 -16 8 -3 10 12 11 11 5 -5 -4 -11 -10 -30 -12 -43 -3 -12 -9 -25 -14 -28 -5 -3 -4 -14 2 -25 17 -33 5 -31 -15 1 -9 17 -13 30 -8 30 5 0 7 10 5 23 -3 13 2 40 11 60 9 20 23 53 31 72 20 46 13 45 -15 -2 -21 -36 -28 -53 -29 -80 -1 -6 -8 -19 -17 -28 -14 -13 -15 -21 -5 -41 14 -31 14 -37 -1 -28 -7 4 -8 3 -4 -5 4 -6 11 -9 16 -6 5 3 14 -4 20 -15 6 -11 15 -18 20 -15 6 3 16 -7 22 -22 16 -35 18 -38 72 -98 25 -27 46 -45 46 -39 0 6 -3 14 -7 17 -10 10 -9 66 1 59 5 -3 7 5 4 16 -8 29 -1 28 28 -4 13 -14 29 -22 35 -18 14 8 29 -14 29 -45 0 -16 4 -21 15 -17 8 3 15 2 16 -2 1 -4 2 -20 4 -37 1 -16 3 -36 4 -43 0 -7 6 -10 12 -7 7 5 7 2 0 -11 -6 -11 -18 -35 -27 -54 l-16 -35 32 30 33 30 -19 -30 -18 -30 24 20 24 20 -17 -27 c-23 -36 -22 -45 3 -23 20 18 20 18 9 -12 -5 -17 -21 -41 -35 -54 -23 -21 -34 -46 -15 -35 10 6 21 -26 21 -64 0 -20 2 -22 10 -10 7 11 10 6 10 -22 0 -43 -19 -63 -21 -21 -1 19 -4 14 -9 -17 -4 -25 -4 -65 -1 -90 l7 -45 11 35 c6 19 14 59 17 88 4 29 11 62 16 75 l9 22 0 -22 c1 -16 6 -21 16 -17 16 6 15 7 19 -127 1 -45 -3 -54 -41 -98 -32 -37 -53 -51 -87 -60 -56 -14 -141 -14 -169 0 -21 10 -21 10 -3 -5 23 -19 121 -21 179 -5 63 17 159 131 156 186 0 10 -7 3 -15 -17 l-14 -35 6 49 c7 56 13 76 24 76 18 0 -30 310 -52 337 -5 7 -6 18 -1 25 4 7 8 49 9 93 1 85 24 227 41 260 21 39 24 99 8 158 -12 47 -13 68 -4 100 6 22 8 53 5 69 -3 17 -1 30 8 35 15 9 36 46 36 62 0 6 -7 11 -15 11 -8 0 -15 -6 -15 -13 0 -8 -9 -22 -21 -33 -31 -28 -54 -8 -54 49 0 25 -4 49 -8 53 -4 4 -7 27 -7 51 0 37 6 49 38 81 21 20 51 43 67 51 17 7 42 20 57 27 14 8 32 14 40 14 7 0 46 32 87 71 131 127 156 228 107 433 -30 123 -29 129 45 166 40 21 139 136 139 161 0 25 -28 45 -42 31 -7 -7 -28 -12 -47 -13 -35 0 -59 -12 -118 -56 l-30 -22 -6 207 c-6 188 -5 212 12 257 10 28 21 76 25 108 3 32 13 75 22 95 43 99 55 165 49 257 -4 50 -13 125 -21 169 -17 92 -18 220 -3 263 5 17 28 45 50 62 40 33 51 69 29 101 -8 11 -9 8 -4 -12z m54 -1447 c-6 -12 -17 -21 -25 -21 -7 0 -15 -3 -17 -7 -6 -15 -68 -53 -85 -53 -10 0 -29 -7 -42 -16 -19 -14 -25 -14 -32 -3 -15 23 -11 28 53 70 40 26 70 38 83 35 11 -3 31 1 45 8 31 16 35 13 20 -13z m-1069 -500 c32 -13 48 -26 52 -43 2 -12 14 -59 26 -103 11 -44 21 -88 21 -98 0 -25 -172 192 -180 228 -4 16 -11 39 -16 49 -7 18 -6 18 22 3 16 -9 50 -25 75 -36z m233 -71 c23 -9 25 -12 14 -35 -12 -28 -18 -25 -36 18 -13 30 -13 31 22 17z m157 -816 c-5 -16 -10 -21 -10 -12 -1 18 10 51 15 45 2 -1 -1 -16 -5 -33z m-391 -87 c0 -18 -2 -19 -10 -7 -13 20 -13 43 0 35 6 -3 10 -16 10 -28z m407 15 c7 -4 9 -13 5 -19 -6 -9 -11 -6 -20 7 -13 21 -6 26 15 12z m41 -88 c-14 -14 -15 -14 -10 11 3 19 8 23 15 16 8 -8 7 -16 -5 -27z m-117 -26 c10 -13 18 -29 19 -36 0 -8 -11 0 -25 16 -14 17 -25 33 -25 36 0 12 12 5 31 -16z m114 -28 c3 -5 -1 -10 -9 -10 -9 0 -17 -8 -18 -17 -2 -34 -4 -38 -17 -71 -8 -18 -16 -30 -20 -27 -12 12 2 79 22 107 22 30 32 34 42 18z m-208 -70 c9 -19 20 -44 25 -55 5 -12 -1 -8 -16 10 -34 40 -50 81 -41 102 7 17 8 16 12 -2 2 -11 11 -36 20 -55z m73 -39 c-1 -31 -14 -12 -24 34 -6 28 -5 29 9 11 8 -11 15 -31 15 -45z"/>
<path d="M576 3525 c-11 -8 -14 -15 -8 -15 7 0 12 -10 12 -22 0 -13 -4 -18 -8 -12 -4 6 -17 7 -32 3 l-25 -7 27 -1 c35 -1 42 -13 49 -86 l6 -60 1 55 c0 30 -2 73 -6 95 -6 31 -4 43 8 52 22 18 -1 15 -24 -2z"/>
<path d="M423 3475 c0 -27 2 -38 4 -22 2 15 2 37 0 50 -2 12 -4 0 -4 -28z"/>
<path d="M412 3283 c-1 -28 -5 -60 -8 -70 -5 -17 -5 -17 6 0 6 9 9 41 7 70 l-3 52 -2 -52z"/>
<path d="M602 3280 c0 -25 3 -70 8 -100 6 -47 7 -49 8 -15 0 22 -4 67 -8 100 -6 55 -7 56 -8 15z"/>
<path d="M404 3085 c0 -49 1 -71 3 -48 2 23 2 64 0 90 -2 26 -3 8 -3 -42z"/>
<path d="M623 3085 c0 -22 2 -30 4 -17 2 12 2 30 0 40 -3 9 -5 -1 -4 -23z"/>
<path d="M632 2990 c0 -19 2 -27 5 -17 2 9 2 25 0 35 -3 9 -5 1 -5 -18z"/>
<path d="M1106 2975 c-3 -9 -5 -47 -4 -83 l1 -67 7 80 c7 84 7 97 -4 70z"/>
<path d="M393 2895 c0 -38 2 -53 4 -32 2 20 2 52 0 70 -2 17 -4 1 -4 -38z"/>
<path d="M643 2875 c0 -22 2 -30 4 -17 2 12 2 30 0 40 -3 9 -5 -1 -4 -23z"/>
<path d="M377 2773 c-10 -10 -8 -35 2 -29 5 3 12 -6 16 -22 4 -15 9 -22 11 -16 6 15 -21 76 -29 67z"/>
<path d="M661 2770 c-1 -17 35 -100 43 -100 3 0 -3 19 -13 43 -10 23 -21 49 -24 57 -5 13 -5 13 -6 0z"/>
<path d="M1067 2703 c-9 -26 -19 -66 -22 -88 -3 -22 -13 -80 -22 -128 -15 -86 -16 -88 -42 -85 -14 2 -25 9 -24 16 4 15 -7 15 -29 -2 -28 -21 -22 -26 35 -26 l53 0 17 93 c9 50 19 112 23 137 4 25 13 62 20 84 8 21 12 41 10 43 -2 2 -11 -17 -19 -44z"/>
<path d="M739 2623 c19 -23 52 -54 75 -69 22 -14 37 -22 31 -17 -5 5 -39 36 -74 69 -58 53 -61 55 -32 17z"/>
<path d="M552 2638 c5 -15 28 -23 28 -10 0 5 -7 13 -16 16 -10 4 -14 1 -12 -6z"/>
<path d="M550 2540 c-11 -7 -6 -10 20 -10 26 0 31 3 20 10 -8 5 -17 10 -20 10 -3 0 -12 -5 -20 -10z"/>
<path d="M455 2530 c-3 -5 3 -10 14 -10 12 0 21 5 21 10 0 6 -6 10 -14 10 -8 0 -18 -4 -21 -10z"/>
<path d="M885 2502 c17 -19 39 -38 50 -44 11 -6 16 -7 10 -2 -5 5 -28 25 -50 44 l-40 35 30 -33z"/>
<path d="M124 2458 c-33 -35 -68 -80 -77 -101 -30 -66 -18 -64 18 3 20 35 56 86 82 112 26 27 45 48 42 48 -2 0 -32 -28 -65 -62z"/>
<path d="M133 2265 c-40 -19 -73 -37 -73 -40 0 -4 8 -4 17 -1 9 4 20 1 25 -6 6 -10 10 -7 14 10 7 25 26 31 22 6 -5 -29 19 -26 26 3 4 15 17 36 29 45 30 24 23 22 -60 -17z"/>
<path d="M70 2201 c0 -16 38 -33 63 -28 19 4 18 4 -5 6 -15 0 -34 8 -42 17 -9 8 -16 11 -16 5z"/>
<path d="M640 752 c0 -29 24 -122 32 -122 5 0 7 8 4 18 -2 9 -8 36 -11 59 -4 24 -11 45 -16 49 -5 3 -9 1 -9 -4z"/>
<path d="M590 709 c0 -8 7 -24 15 -35 18 -24 19 -7 0 26 -9 16 -14 19 -15 9z"/>
</g>
<g id="layer107" fill="#b48b6f" stroke="none">
<path d="M1216 4351 c-3 -5 1 -15 10 -22 8 -7 22 -26 30 -43 8 -18 11 -21 8 -8 -6 24 5 29 24 10 7 -7 12 -8 12 -2 0 14 -33 44 -48 44 -7 0 -12 7 -12 15 0 16 -16 20 -24 6z"/>
<path d="M1515 3950 c-5 -19 -17 -35 -25 -36 -33 -2 -37 -5 -50 -31 -21 -47 -30 -229 -13 -272 6 -16 8 4 5 67 -6 130 1 158 55 207 36 34 44 47 41 70 l-3 29 -10 -34z"/>
<path d="M1446 3420 c3 -104 2 -138 -6 -122 -5 13 -7 34 -4 47 3 12 1 26 -5 29 -7 5 -8 1 -5 -9 5 -11 0 -18 -14 -22 -11 -2 -23 -16 -26 -29 -4 -13 -12 -21 -19 -18 -8 3 -13 -5 -15 -20 -1 -14 -13 -37 -27 -52 -16 -17 -25 -39 -25 -59 0 -18 -6 -38 -14 -45 -11 -8 -13 -24 -9 -59 4 -34 1 -57 -11 -79 -25 -49 -37 -125 -41 -267 -2 -72 -6 -146 -9 -165 -3 -19 -8 -57 -11 -85 -17 -167 -24 -204 -43 -231 -30 -41 -38 -80 -18 -87 30 -12 16 -38 -59 -112 -85 -83 -108 -95 -135 -70 -17 15 -18 14 -24 -19 -4 -19 -12 -36 -19 -39 -8 -2 -7 -11 5 -29 16 -24 16 -28 -4 -69 -11 -24 -25 -55 -31 -69 -6 -14 -16 -32 -23 -40 -7 -8 -14 -24 -16 -35 -4 -18 -5 -18 -16 5 -6 14 -28 67 -48 119 l-36 94 20 43 21 42 -39 7 c-40 7 -63 29 -87 86 -9 21 -8 27 8 37 26 16 24 49 -3 63 -21 12 -98 88 -98 98 0 2 12 -6 26 -20 22 -20 36 -24 90 -24 56 0 67 3 91 28 31 30 25 42 -27 52 -14 3 -44 10 -67 15 -23 5 -50 7 -59 3 -14 -5 -14 0 6 34 12 23 20 47 18 54 -3 8 -1 24 3 37 17 44 -23 22 -127 -72 -69 -62 -63 -73 8 -14 29 24 62 50 73 58 20 15 20 15 0 -10 -11 -14 -38 -42 -60 -62 -22 -20 -34 -37 -27 -38 8 0 38 25 68 55 95 98 59 31 -46 -85 -27 -30 -33 -33 -43 -20 -7 8 -22 14 -34 12 -17 -2 -26 4 -35 22 -10 23 -9 28 8 41 12 9 14 14 6 15 -7 0 -20 7 -28 15 -13 13 -13 19 -1 47 39 88 22 88 -20 0 -14 -31 -31 -59 -36 -61 -5 -2 5 -12 22 -22 18 -11 36 -30 41 -43 5 -13 14 -27 19 -31 6 -3 18 -21 27 -38 9 -18 11 -27 4 -20 -14 13 -63 -4 -54 -19 11 -18 -52 18 -78 44 -16 15 -28 24 -28 20 0 -5 -17 -14 -37 -20 -31 -10 -40 -9 -55 5 -10 9 -18 11 -18 5 0 -15 50 -68 61 -64 5 1 12 -5 15 -13 3 -8 10 -12 15 -9 5 3 9 0 9 -6 0 -6 4 -8 10 -5 5 3 10 2 10 -3 0 -9 59 -39 71 -35 3 1 7 -21 8 -50 1 -28 5 -54 9 -57 4 -3 12 -14 18 -25 6 -11 20 -24 32 -30 36 -16 149 -174 161 -225 9 -40 10 -34 6 45 -3 50 -17 137 -31 195 -14 58 -28 116 -29 128 -2 13 -10 31 -18 40 -8 10 -17 25 -20 35 -6 16 -5 16 17 2 15 -10 27 -30 31 -53 4 -20 15 -53 25 -73 11 -20 17 -38 15 -41 -2 -2 7 -17 21 -33 24 -28 24 -30 8 -42 -17 -12 -16 -13 3 -13 23 0 44 -39 48 -90 1 -17 7 -36 14 -43 6 -6 11 -26 11 -45 l0 -35 -26 27 c-15 14 -32 26 -38 26 -6 0 -1 -8 12 -18 34 -27 54 -70 42 -93 -6 -10 -15 -19 -20 -19 -18 0 -9 -53 21 -140 16 -47 34 -112 40 -144 5 -33 16 -82 24 -109 20 -66 20 -123 0 -131 -8 -3 -15 0 -16 7 0 7 -8 -9 -17 -35 -9 -27 -21 -48 -27 -47 -5 0 -11 -8 -13 -18 -3 -15 -1 -16 8 -3 10 12 11 11 5 -5 -4 -11 -10 -30 -12 -43 -3 -12 -9 -25 -14 -28 -5 -3 -4 -14 2 -25 17 -33 5 -31 -15 1 -9 17 -13 30 -8 30 5 0 7 10 5 23 -3 13 2 40 11 60 9 20 23 53 31 72 8 19 13 35 11 35 -8 0 -48 -75 -53 -99 -2 -13 -9 -33 -14 -44 -6 -11 -8 -33 -5 -49 4 -20 2 -27 -6 -22 -7 4 -8 3 -4 -5 4 -6 11 -9 16 -6 5 3 14 -4 20 -15 6 -11 15 -18 20 -15 6 3 16 -7 22 -22 16 -35 18 -38 72 -98 25 -27 46 -45 46 -39 0 6 -3 14 -7 17 -10 10 -9 66 1 59 5 -3 7 5 4 16 -8 29 -1 28 28 -4 13 -14 29 -22 35 -18 14 8 29 -14 29 -45 0 -16 4 -21 15 -17 8 3 15 2 16 -2 1 -4 2 -20 4 -37 1 -16 3 -36 4 -43 0 -7 6 -10 12 -7 7 5 7 2 0 -11 -6 -11 -18 -35 -27 -54 l-16 -35 32 30 33 30 -19 -30 -18 -30 24 20 24 20 -17 -27 c-23 -36 -22 -45 3 -23 20 18 20 18 9 -12 -5 -17 -21 -41 -35 -54 -23 -21 -34 -46 -15 -35 10 6 21 -26 21 -64 0 -20 2 -22 10 -10 7 11 10 6 10 -22 0 -43 -19 -63 -21 -21 -1 19 -4 14 -9 -17 -4 -25 -4 -65 -1 -90 l7 -45 11 35 c6 19 14 59 17 88 4 29 11 62 16 75 l9 22 0 -22 c1 -16 6 -21 16 -17 12 5 15 -2 15 -32 0 -33 19 -88 20 -59 0 6 5 39 10 75 7 47 6 68 -3 79 -9 12 -9 13 1 7 6 -4 12 -3 12 2 0 27 -44 219 -52 229 -5 7 -6 18 -1 25 4 7 8 49 9 93 1 85 24 227 41 260 21 39 24 99 8 158 -12 47 -13 68 -4 100 6 22 8 53 5 69 -3 17 -1 30 8 35 15 9 36 46 36 62 0 6 -7 11 -15 11 -8 0 -15 -6 -15 -13 0 -8 -9 -22 -21 -33 -31 -28 -54 -8 -54 49 0 25 -4 49 -8 53 -4 4 -7 27 -7 51 0 37 6 49 38 81 21 20 51 43 67 51 17 7 42 20 57 27 14 8 32 14 40 14 7 0 46 32 87 71 131 127 156 228 107 433 -30 123 -29 129 45 166 40 21 139 136 139 161 0 25 -28 45 -42 31 -7 -7 -28 -12 -47 -13 -35 0 -59 -12 -118 -56 l-30 -22 -6 207 c-6 188 -5 212 12 257 10 28 21 76 25 108 3 32 13 75 22 95 41 95 53 160 48 260 -9 163 -22 180 -18 22z m134 -866 c0 -15 -22 -44 -35 -44 -7 0 -15 -3 -17 -7 -6 -15 -68 -53 -85 -53 -10 0 -29 -7 -42 -16 -19 -14 -25 -14 -32 -3 -13 21 -12 25 28 55 54 42 79 53 113 52 17 -1 36 4 42 10 13 13 28 16 28 6z m-1079 -523 c32 -13 48 -26 52 -43 2 -12 14 -59 26 -103 11 -44 21 -88 21 -98 0 -25 -172 192 -180 228 -4 16 -11 39 -16 49 -7 18 -6 18 22 3 16 -9 50 -25 75 -36z m233 -71 c23 -9 25 -12 14 -35 -12 -28 -18 -25 -36 18 -13 30 -13 31 22 17z m157 -816 c-5 -16 -10 -21 -10 -12 -1 18 10 51 15 45 2 -1 -1 -16 -5 -33z m16 -72 c7 -4 9 -13 5 -19 -6 -9 -11 -6 -20 7 -13 21 -6 26 15 12z m41 -88 c-14 -14 -15 -14 -10 11 3 19 8 23 15 16 8 -8 7 -16 -5 -27z m-117 -26 c10 -13 18 -29 19 -36 0 -8 -11 0 -25 16 -14 17 -25 33 -25 36 0 12 12 5 31 -16z m114 -28 c3 -5 -1 -10 -9 -10 -9 0 -17 -8 -18 -17 -2 -34 -4 -38 -17 -71 -8 -18 -16 -30 -20 -27 -12 12 2 79 22 107 22 30 32 34 42 18z m-208 -70 c9 -19 20 -44 25 -55 5 -12 -1 -8 -16 10 -34 40 -50 81 -41 102 7 17 8 16 12 -2 2 -11 11 -36 20 -55z m73 -39 c-1 -31 -14 -12 -24 34 -6 28 -5 29 9 11 8 -11 15 -31 15 -45z"/>
<path d="M1484 2515 c-10 -8 -14 -14 -9 -15 15 0 40 18 34 24 -3 3 -14 -1 -25 -9z"/>
<path d="M113 2255 c-29 -13 -53 -27 -53 -31 0 -3 8 -3 17 0 9 4 20 1 25 -6 6 -10 10 -7 14 10 7 25 26 31 22 6 -6 -33 17 -23 28 11 6 19 8 35 5 35 -3 0 -30 -11 -58 -25z"/>
<path d="M650 1676 c0 -2 7 -9 15 -16 12 -10 15 -10 15 4 0 9 -7 16 -15 16 -8 0 -15 -2 -15 -4z"/>
<path d="M621 1619 c-1 -36 -43 -128 -86 -191 -28 -41 -36 -60 -34 -92 3 -63 4 -62 -61 -60 -33 2 -60 -1 -60 -4 1 -16 17 -29 41 -35 34 -9 42 -29 29 -77 -9 -34 -7 -46 17 -94 15 -31 24 -58 21 -62 -13 -12 -25 6 -32 45 -3 22 -9 42 -14 44 -13 9 -7 -99 7 -116 8 -11 14 -47 16 -94 1 -43 5 -91 9 -108 16 -63 49 -135 62 -135 10 0 14 -16 14 -62 1 -89 23 -227 44 -267 10 -19 24 -53 32 -75 12 -36 13 -37 8 -7 -5 26 -3 32 7 25 7 -4 27 -8 43 -8 58 -2 72 -86 15 -86 -24 0 -24 -2 1 -50 27 -53 52 -66 101 -51 47 14 59 34 50 86 -6 36 -10 40 -33 37 -28 -3 -46 12 -28 23 7 4 7 12 0 24 -7 14 -4 24 15 41 14 13 25 33 25 44 0 20 -36 116 -53 144 -14 22 -71 14 -97 -13 -28 -30 -44 -32 -37 -5 3 11 1 18 -4 14 -5 -3 -9 -14 -9 -25 0 -17 6 -20 38 -18 25 2 36 -1 34 -9 -1 -9 6 -10 25 -6 l28 7 -24 -26 c-13 -15 -34 -30 -45 -33 -21 -7 -20 -7 1 -15 34 -12 19 -43 -18 -35 -17 3 -29 1 -32 -7 -10 -27 -26 13 -48 118 -23 111 -25 137 -16 210 8 59 -2 95 -29 107 -27 12 -33 31 -8 21 14 -5 15 -3 4 16 -18 35 -4 36 16 2 19 -32 38 -39 50 -19 4 6 3 8 -3 5 -6 -4 -13 3 -17 16 -9 33 -8 37 12 30 14 -6 15 -4 5 9 -23 27 -2 27 24 0 l25 -27 -21 38 c-24 43 -26 51 -10 41 8 -5 8 -1 0 14 -6 11 -8 28 -4 38 4 12 3 15 -6 10 -6 -4 -19 -2 -28 6 -15 12 -15 11 -5 -9 18 -32 14 -41 -5 -13 -16 23 -22 48 -24 97 -1 13 -4 21 -8 19 -4 -3 -7 4 -7 15 0 10 4 19 8 19 4 0 8 7 8 16 0 8 -4 12 -10 9 -15 -9 -12 9 10 76 12 34 19 63 17 66 -11 10 -46 -67 -53 -115 -3 -29 -10 -55 -15 -57 -22 -14 -20 105 2 132 12 15 12 16 -3 10 -24 -9 -23 -3 8 30 17 18 21 29 13 32 -8 2 -3 11 12 23 15 13 18 18 7 14 -13 -4 -15 -1 -11 12 4 9 9 19 12 22 4 3 12 18 19 34 7 16 15 26 18 23 3 -3 1 -15 -6 -26 -12 -24 2 -28 20 -6 10 12 16 13 28 3 13 -11 14 -10 8 10 -5 15 -2 32 10 50 16 25 16 26 1 13 -25 -20 -30 -8 -19 43 11 51 6 64 -14 38 -10 -12 -9 -4 2 23 9 22 21 45 26 52 7 8 6 22 0 40 l-10 28 -1 -26z m-71 -934 c0 -8 -4 -15 -10 -15 -5 0 -10 7 -10 15 0 8 5 15 10 15 6 0 10 -7 10 -15z"/>
<path d="M640 1567 c0 -3 9 -29 20 -57 11 -28 21 -65 21 -83 2 -31 2 -31 6 -4 4 28 -22 124 -38 142 -5 5 -9 6 -9 2z"/>
<path d="M710 1336 c-8 -8 -37 -36 -65 -62 -27 -26 -42 -44 -32 -41 15 6 15 3 -3 -34 -13 -25 -18 -48 -14 -61 6 -21 8 -20 35 13 16 19 29 28 29 21 0 -7 5 -10 11 -6 11 6 10 1 -9 -56 -2 -8 4 -4 13 9 10 13 19 34 20 46 2 12 10 36 19 53 35 69 15 67 -49 -3 -36 -38 -65 -66 -65 -60 0 5 21 31 48 58 40 42 43 48 22 42 -22 -7 -19 -2 18 35 23 23 42 46 42 51 0 12 -3 11 -20 -5z"/>
<path d="M634 1133 c-17 -25 -27 -63 -18 -63 6 0 44 83 40 87 -2 2 -12 -9 -22 -24z"/>
<path d="M650 827 c0 -27 63 -103 105 -124 29 -16 29 -15 -6 18 -19 19 -49 52 -67 74 -18 22 -32 36 -32 32z"/>
<path d="M590 710 c0 -8 5 -22 10 -30 9 -13 10 -13 10 0 0 8 -5 22 -10 30 -9 13 -10 13 -10 0z"/>
<path d="M814 652 c-15 -10 -25 -42 -13 -42 6 0 13 9 16 20 3 11 10 17 16 13 6 -3 7 -1 3 5 -8 14 -8 14 -22 4z"/>
<path d="M786 532 c-9 -14 23 -52 39 -46 12 5 12 9 -2 30 -16 25 -28 30 -37 16z"/>
<path d="M873 258 c-1 -43 1 -57 7 -43 11 26 12 76 2 93 -5 7 -9 -14 -9 -50z"/>
</g>
<g id="layer108" fill="#af9a97" stroke="none">
<path d="M505 4451 c4 -27 2 -65 -3 -85 -6 -20 -7 -36 -2 -36 14 0 20 29 20 96 0 39 4 63 10 59 10 -6 7 -114 -4 -156 -5 -18 -3 -29 8 -38 9 -8 16 -22 16 -33 0 -14 5 -18 15 -14 13 5 14 2 4 -16 -8 -15 -13 -17 -19 -8 -5 8 -8 4 -7 -12 l2 -25 22 21 c13 11 23 27 23 34 0 6 5 12 10 12 14 0 12 -16 -5 -50 -10 -20 -12 -35 -6 -52 7 -17 10 -18 10 -6 1 17 50 48 101 63 19 6 22 4 14 -5 -12 -12 -8 -50 5 -50 4 0 32 7 62 16 161 48 240 135 177 195 -83 78 -215 127 -365 134 l-95 5 7 -49z"/>
<path d="M240 4475 c-66 -15 -128 -40 -152 -62 -22 -20 -23 -64 -3 -103 24 -47 117 -120 153 -120 17 0 33 4 37 9 3 5 18 8 33 6 15 -2 33 -4 40 -4 7 -1 24 -12 37 -26 30 -29 32 -17 5 35 -11 21 -16 41 -11 45 5 3 13 -4 16 -16 4 -12 10 -18 14 -13 8 11 32 17 29 6 -1 -4 1 -17 6 -29 5 -16 15 -23 34 -23 39 0 60 16 44 32 -9 9 -12 9 -12 0 0 -25 -31 -10 -47 23 -15 32 -15 36 1 54 15 16 16 23 5 43 -7 13 -13 53 -12 89 l0 65 -81 1 c-45 0 -106 -5 -136 -12z"/>
<path d="M1220 4341 c0 -5 5 -13 10 -16 6 -4 16 -21 24 -38 l13 -32 0 30 c0 21 -8 37 -24 48 -12 10 -23 13 -23 8z"/>
<path d="M1433 4245 c0 -22 2 -30 4 -17 2 12 2 30 0 40 -3 9 -5 -1 -4 -23z"/>
<path d="M1253 4100 c0 -30 2 -43 4 -27 2 15 2 39 0 55 -2 15 -4 2 -4 -28z"/>
<path d="M573 4113 c-10 -3 -13 -38 -11 -131 l2 -127 5 120 c3 66 10 126 14 133 9 13 9 13 -10 5z"/>
<path d="M417 4102 c6 -4 13 -23 16 -42 4 -33 4 -33 5 8 2 34 -1 42 -15 42 -12 0 -14 -3 -6 -8z"/>
<path d="M1250 3850 c0 -73 2 -131 5 -128 7 7 7 249 0 256 -3 3 -5 -55 -5 -128z"/>
<path d="M1521 3960 c-2 -32 -10 -44 -39 -59 -39 -21 -63 -89 -63 -183 -1 -46 3 -94 8 -107 6 -16 8 6 5 67 -6 130 1 158 55 207 37 35 44 46 40 71 -4 26 -4 26 -6 4z"/>
<path d="M1243 3660 c0 -25 2 -35 4 -22 2 12 2 32 0 45 -2 12 -4 2 -4 -23z"/>
<path d="M443 3615 c0 -22 2 -30 4 -17 2 12 2 30 0 40 -3 9 -5 -1 -4 -23z"/>
<path d="M1226 3538 c-3 -13 -5 -36 -5 -53 1 -21 4 -15 10 20 8 52 6 72 -5 33z"/>
<path d="M1447 3470 c3 -52 9 -99 13 -103 9 -10 1 112 -10 163 -5 21 -6 -4 -3 -60z"/>
<path d="M577 3460 c6 -9 13 -36 16 -60 l4 -45 1 46 c2 34 -3 50 -15 60 -16 12 -17 12 -6 -1z"/>
<path d="M1213 3415 c0 -22 2 -30 4 -17 2 12 2 30 0 40 -3 9 -5 -1 -4 -23z"/>
<path d="M1203 3295 c0 -27 2 -38 4 -22 2 15 2 37 0 50 -2 12 -4 0 -4 -28z"/>
<path d="M412 3290 c0 -19 2 -27 5 -17 2 9 2 25 0 35 -3 9 -5 1 -5 -18z"/>
<path d="M1456 3308 c-20 -77 -41 -129 -46 -112 -3 10 -13 20 -22 20 -10 1 -15 -2 -12 -7 3 -5 -2 -9 -10 -9 -11 0 -16 -9 -16 -29 0 -17 -4 -32 -9 -36 -5 -3 -15 -29 -21 -59 -6 -29 -19 -70 -30 -91 -15 -29 -18 -53 -15 -122 2 -51 8 -90 15 -96 10 -9 12 -8 7 5 -3 9 1 22 9 28 8 7 15 27 15 44 3 57 17 -97 22 -234 2 -74 2 -113 0 -85 -2 27 -8 54 -13 60 -5 6 -7 21 -3 33 3 12 1 22 -5 22 -6 0 -14 10 -18 22 -6 20 -8 19 -27 -18 -19 -36 -37 -133 -52 -282 -3 -34 -15 -83 -26 -108 -24 -53 -32 -104 -18 -104 6 0 8 -4 4 -9 -3 -5 -1 -12 5 -16 15 -10 -7 -44 -38 -58 -14 -7 -45 -33 -69 -58 -56 -60 -96 -78 -122 -55 -24 22 -28 20 -36 -11 -3 -15 -11 -31 -17 -34 -7 -5 -4 -17 9 -35 20 -27 20 -28 1 -72 -17 -38 -24 -60 -32 -110 -4 -20 -36 -54 -48 -50 -8 3 -56 117 -100 238 -1 3 8 24 20 47 l22 41 -38 7 c-51 8 -55 12 -86 73 -24 47 -25 54 -11 68 20 21 19 31 -5 37 -11 3 -24 16 -29 29 -5 12 -18 32 -30 42 -21 19 -30 53 -11 41 6 -3 10 1 10 9 0 8 13 35 29 58 16 24 27 45 24 48 -3 3 -10 -4 -17 -14 -6 -10 -35 -44 -63 -74 -44 -46 -55 -53 -68 -42 -8 7 -15 10 -15 6 0 -3 -11 -1 -25 4 -28 11 -33 -1 -10 -20 19 -16 85 -132 85 -150 0 -10 -4 -9 -17 2 -10 9 -38 19 -63 23 -50 8 -71 16 -115 44 -16 11 -40 20 -52 20 -12 1 -35 13 -52 27 -17 14 -31 21 -31 15 0 -14 50 -67 61 -63 5 1 12 -5 15 -13 3 -8 10 -12 15 -9 5 3 9 0 9 -6 0 -6 5 -8 10 -5 6 3 10 2 10 -3 0 -10 60 -38 73 -34 4 1 6 -1 6 -5 -1 -5 -1 -27 0 -51 1 -38 7 -49 49 -90 94 -93 160 -186 172 -244 8 -34 9 -24 5 47 -3 50 -17 137 -31 195 -14 58 -28 116 -29 128 -2 13 -11 32 -20 42 -9 10 -17 28 -17 41 -1 13 -10 35 -20 48 -10 13 -16 27 -12 30 7 8 44 -37 44 -54 0 -6 8 -19 18 -29 11 -9 19 -29 20 -45 0 -16 10 -48 21 -72 12 -23 21 -48 21 -54 0 -7 9 -22 20 -35 11 -12 17 -27 14 -32 -3 -5 1 -15 9 -21 13 -11 36 -66 41 -102 1 -8 5 -18 9 -21 4 -4 7 -25 7 -47 l0 -40 -27 24 -27 24 27 -33 c32 -39 34 -61 9 -88 -18 -19 -18 -22 -1 -94 13 -57 24 -81 46 -100 25 -22 28 -31 21 -56 -8 -31 -1 -108 13 -135 4 -9 13 -43 18 -75 5 -32 13 -75 17 -94 7 -32 6 -34 -9 -21 -18 14 -19 13 -31 -34 -3 -11 -4 1 -2 27 2 26 0 45 -5 42 -5 -3 -9 1 -10 8 0 7 -11 -18 -25 -56 -13 -39 -20 -72 -16 -75 5 -3 12 -19 16 -35 10 -41 68 -156 78 -156 5 0 -4 26 -21 58 -17 31 -35 70 -41 86 -9 26 -9 27 5 16 13 -11 15 -8 15 21 0 24 3 30 9 20 6 -9 5 -24 0 -39 -12 -31 -6 -38 15 -17 15 15 16 14 16 -12 1 -27 1 -27 15 -9 8 11 15 30 15 42 0 24 -26 40 -34 21 -3 -7 -3 2 1 18 8 40 11 42 28 19 20 -27 36 -86 26 -98 -10 -13 -4 -67 9 -80 5 -5 12 14 16 45 6 46 14 61 57 106 28 29 52 51 55 48 3 -2 0 -11 -6 -18 -7 -8 -9 -17 -5 -20 10 -10 -28 -47 -41 -40 -6 3 -8 3 -4 -2 4 -4 3 -14 -3 -21 -9 -10 -7 -15 5 -20 13 -5 14 -9 3 -25 -16 -22 -6 -137 13 -149 6 -4 13 -26 13 -49 2 -34 5 -40 20 -35 13 4 11 -4 -13 -39 -36 -54 -39 -74 -5 -32 19 23 27 27 37 17 9 -9 7 -19 -12 -44 -14 -20 -17 -27 -7 -19 10 8 20 12 22 9 7 -7 -15 -68 -25 -68 -4 0 -16 -12 -26 -27 -15 -24 -15 -26 -1 -14 15 12 17 10 17 -20 0 -26 3 -30 10 -19 7 11 10 7 11 -20 2 -31 3 -32 6 -7 2 15 11 39 18 54 l14 26 5 -24 c3 -13 13 -51 21 -84 l14 -60 -4 53 c-4 56 2 85 16 76 5 -3 9 -1 9 4 0 27 -44 219 -52 229 -5 7 -6 18 -1 25 4 7 8 49 9 93 1 85 24 227 41 260 21 39 24 99 8 158 -12 47 -13 68 -4 100 6 22 8 53 5 69 -3 17 -1 30 8 35 15 9 36 46 36 62 0 6 -7 11 -15 11 -8 0 -15 -6 -15 -13 0 -8 -9 -22 -21 -33 -31 -28 -54 -8 -54 49 0 25 -4 49 -8 53 -4 4 -7 27 -7 51 0 37 6 49 38 81 21 20 51 43 67 51 17 7 42 20 57 27 14 8 32 14 40 14 7 0 46 32 87 71 131 127 156 228 107 433 -30 123 -29 129 45 166 40 21 139 136 139 161 0 25 -28 45 -42 31 -7 -7 -28 -12 -48 -13 -34 0 -58 -12 -117 -56 l-30 -22 -6 207 c-7 192 -6 211 13 260 11 29 20 65 20 80 0 30 17 95 48 184 21 58 34 118 26 118 -3 0 -6 -6 -8 -12z m-80 -296 c-12 -11 -18 7 -10 30 l8 23 4 -23 c2 -13 1 -26 -2 -30z m204 -467 c0 -17 -35 -51 -73 -71 -15 -8 -26 -18 -23 -22 2 -4 -3 -8 -12 -9 -9 -1 -35 -8 -57 -16 -38 -15 -40 -15 -50 5 -7 17 -3 25 25 49 41 34 87 59 108 59 12 0 11 -4 -4 -22 l-19 -23 23 19 c23 20 62 43 75 45 4 1 7 -6 7 -14z m-1079 -514 c32 -13 48 -26 52 -43 2 -12 14 -59 26 -103 11 -44 21 -88 21 -98 0 -25 -172 192 -180 228 -4 16 -11 39 -16 49 -7 18 -6 18 22 3 16 -9 50 -25 75 -36z m233 -71 c23 -9 25 -12 14 -35 -12 -28 -18 -25 -36 18 -13 30 -13 31 22 17z m160 -443 c-8 -81 -24 -98 -24 -26 0 64 9 101 22 93 5 -3 6 -32 2 -67z m2 -373 c-4 -18 -11 -34 -17 -34 -9 0 -6 23 8 75 9 32 16 -1 9 -41z m29 -74 c0 -45 -7 -50 -29 -18 -21 30 -20 37 7 48 12 5 22 9 22 9 0 1 0 -17 0 -39z m30 -60 c8 -13 -21 -60 -35 -60 -6 0 -3 11 6 25 8 13 13 29 9 35 -3 5 -2 10 4 10 5 0 13 -5 16 -10z"/>
<path d="M613 3185 c0 -22 2 -30 4 -17 2 12 2 30 0 40 -3 9 -5 -1 -4 -23z"/>
<path d="M1182 3178 c-6 -23 -9 -44 -7 -46 2 -2 9 15 15 38 6 23 9 44 7 46 -2 3 -9 -14 -15 -38z"/>
<path d="M403 3120 c0 -30 2 -43 4 -27 2 15 2 39 0 55 -2 15 -4 2 -4 -28z"/>
<path d="M1152 3095 c-7 -14 -12 -31 -12 -38 1 -7 7 3 16 22 17 39 13 54 -4 16z"/>
<path d="M1106 2975 c-3 -9 -5 -33 -5 -53 2 -33 2 -32 9 13 8 53 6 66 -4 40z"/>
<path d="M465 2629 c-11 -17 0 -20 21 -4 17 13 17 14 2 15 -9 0 -20 -5 -23 -11z"/>
<path d="M1042 2590 c0 -19 2 -27 5 -17 2 9 2 25 0 35 -3 9 -5 1 -5 -18z"/>
<path d="M413 2458 c-5 -7 -17 -31 -27 -53 -11 -22 -23 -48 -27 -57 -7 -13 -3 -20 14 -29 12 -7 25 -17 29 -23 5 -7 8 -4 8 7 0 9 5 17 10 17 18 0 10 19 -11 25 -23 8 -22 25 5 88 16 37 16 47 -1 25z"/>
<path d="M569 2411 c-61 -46 -131 -114 -99 -96 8 5 41 31 73 57 32 26 60 48 63 48 6 0 -38 -63 -51 -72 -38 -26 -49 -37 -36 -38 8 0 35 21 60 48 25 26 48 46 51 45 3 -1 6 12 6 28 1 16 1 29 -1 29 -1 0 -31 -22 -66 -49z"/>
<path d="M930 2412 c-22 -17 -21 -18 29 -20 27 -1 52 1 54 6 3 4 -9 7 -26 7 -20 0 -31 5 -29 13 3 16 -2 15 -28 -6z"/>
<path d="M587 2274 c-7 -36 21 -54 85 -54 57 0 108 25 95 47 -6 10 -81 25 -144 28 -25 2 -32 -2 -36 -21z"/>
<path d="M113 2255 c-29 -13 -53 -27 -53 -31 0 -3 8 -3 17 0 9 4 20 1 24 -5 4 -8 9 -4 14 10 8 27 25 27 25 1 0 -31 14 -23 26 15 6 19 8 35 5 35 -3 0 -30 -11 -58 -25z"/>
<path d="M70 2201 c0 -14 38 -34 53 -27 7 2 5 5 -5 5 -9 1 -24 8 -32 17 -9 8 -16 11 -16 5z"/>
<path d="M186 2163 c6 -4 18 -21 27 -38 8 -16 32 -46 53 -65 l37 -35 -23 33 c-13 17 -27 32 -32 32 -4 0 -16 17 -25 37 -10 20 -25 38 -33 41 -10 2 -11 1 -4 -5z"/>
<path d="M309 2007 c6 -8 26 -42 44 -78 18 -35 50 -94 71 -131 20 -37 46 -100 58 -140 20 -74 77 -204 78 -180 0 7 -9 29 -19 50 -10 20 -31 75 -45 122 -14 47 -53 135 -87 195 -33 61 -67 125 -76 143 -8 17 -20 32 -25 32 -7 0 -6 -5 1 -13z"/>
<path d="M621 1619 c-1 -36 -43 -128 -86 -191 -28 -41 -36 -60 -34 -92 3 -63 4 -62 -61 -60 -33 2 -60 -1 -60 -4 1 -16 17 -29 41 -35 34 -9 42 -29 29 -77 -9 -34 -7 -46 17 -94 15 -31 24 -58 21 -62 -13 -12 -26 6 -32 47 -8 51 -18 45 -21 -13 -2 -27 3 -49 12 -60 10 -12 16 -42 18 -95 1 -43 5 -91 9 -108 16 -63 49 -135 62 -135 10 0 14 -16 14 -62 1 -89 23 -227 44 -267 10 -19 24 -53 32 -75 12 -38 13 -39 7 -6 -5 31 -4 33 11 21 14 -11 16 -11 16 3 0 9 -8 16 -20 16 -21 0 -26 14 -57 155 -11 52 -16 113 -14 177 l2 96 -30 23 c-32 24 -42 45 -16 35 13 -4 13 -2 5 14 -18 34 -10 36 19 3 31 -36 47 -43 36 -15 -15 34 -12 72 4 77 18 5 28 65 11 65 -5 0 -10 -5 -10 -12 0 -7 -13 3 -29 22 -23 28 -27 38 -18 50 10 13 10 13 -4 3 -19 -16 -39 1 -38 31 0 20 1 20 8 2 7 -18 8 -18 14 -2 4 10 5 22 1 27 -3 5 -1 9 3 9 5 0 7 15 5 33 -2 18 6 60 17 92 l20 60 -23 -29 c-14 -16 -27 -49 -31 -75 -10 -71 -16 -86 -26 -70 -12 20 -3 117 13 136 11 15 11 16 -4 10 -23 -8 -12 21 17 45 12 11 15 17 7 18 -8 0 -10 5 -5 13 4 6 9 21 10 32 2 11 8 22 13 23 6 2 10 9 10 16 0 7 7 21 16 32 15 18 15 18 9 -3 -5 -18 -3 -22 9 -17 9 3 16 10 16 16 0 5 5 6 10 3 6 -3 10 2 10 11 0 10 8 26 18 37 17 20 17 20 -12 2 l-29 -19 8 24 c25 79 25 116 -1 82 -10 -12 -9 -4 2 23 9 22 21 45 26 52 7 8 6 22 0 40 l-10 28 -1 -26z m-95 -244 c-3 -8 -1 -15 4 -15 6 0 10 -5 10 -12 0 -8 -6 -7 -16 4 -9 9 -13 21 -10 27 10 16 19 13 12 -4z m-46 -125 c0 -13 -11 -13 -30 0 -12 8 -11 10 8 10 12 0 22 -4 22 -10z m70 -567 c0 -20 -23 -11 -26 9 -1 11 3 15 12 11 8 -3 14 -12 14 -20z"/>
<path d="M646 1550 c3 -14 11 -32 16 -40 6 -10 7 -7 2 10 -3 14 -11 32 -16 40 -6 10 -7 7 -2 -10z"/>
<path d="M682 1430 c0 -19 2 -27 5 -17 2 9 2 25 0 35 -3 9 -5 1 -5 -18z"/>
<path d="M648 1280 c-12 -16 -23 -38 -24 -47 -1 -10 -5 -27 -9 -38 -5 -14 1 -11 19 10 14 16 28 26 32 22 4 -3 -10 -25 -30 -47 -20 -22 -36 -43 -36 -48 1 -4 23 17 50 47 53 59 69 59 20 1 -17 -19 -30 -38 -30 -43 0 -5 18 13 40 39 22 27 40 55 40 64 0 9 -3 11 -8 5 -9 -13 -42 -16 -42 -4 0 5 -8 6 -17 2 -13 -4 -10 3 10 24 28 31 33 43 17 43 -5 0 -19 -13 -32 -30z"/>
<path d="M647 947 c-4 -10 -7 -26 -7 -35 1 -15 2 -15 11 1 6 10 9 25 7 35 -3 16 -4 15 -11 -1z"/>
<path d="M680 893 c0 -16 95 -155 121 -178 16 -14 13 -6 -12 28 -19 27 -48 71 -65 98 -36 56 -44 67 -44 52z"/>
<path d="M686 767 c3 -8 19 -24 37 -37 l32 -23 -34 37 c-38 40 -43 43 -35 23z"/>
<path d="M641 752 c-1 -20 21 -106 30 -116 12 -13 -1 63 -17 99 -7 17 -13 24 -13 17z"/>
<path d="M675 438 l-30 -31 34 7 c25 4 32 3 28 -7 -4 -10 4 -12 27 -10 34 5 34 4 -34 -47 -20 -16 -22 -19 -7 -20 9 0 17 -4 17 -10 0 -5 7 -7 16 -3 12 4 15 2 12 -8 -3 -8 -13 -13 -22 -13 -9 1 -16 -2 -16 -6 0 -5 -10 -6 -22 -2 -20 5 -21 3 -11 -10 7 -8 9 -19 5 -23 -4 -5 -1 -5 5 -1 15 8 63 -36 63 -57 0 -19 -21 -37 -42 -37 -23 0 -22 -2 2 -51 27 -52 53 -64 105 -46 34 12 40 18 43 47 6 55 -4 76 -35 75 -23 0 -28 4 -30 31 -2 22 4 38 22 54 31 29 31 46 1 112 -12 29 -26 61 -29 71 -11 29 -67 22 -102 -15z"/>
<path d="M641 180 c0 -14 28 -72 29 -59 0 4 -7 22 -15 40 -8 19 -14 27 -14 19z"/>
<path d="M985 49 c-27 -20 -59 -32 -100 -38 -43 -6 -50 -9 -25 -10 53 -1 101 15 140 48 44 38 37 38 -15 0z"/>
</g>
<g id="layer109" fill="#d9b397" stroke="none">
<path d="M539 4498 c0 -2 -1 -37 -3 -78 -1 -41 -5 -81 -10 -88 -4 -7 -1 -23 8 -37 9 -13 16 -32 16 -41 0 -10 6 -14 14 -11 10 4 12 0 8 -15 -4 -15 -2 -19 7 -13 7 4 11 15 8 25 -3 10 -1 34 3 52 l7 33 7 -46 c6 -34 4 -54 -8 -77 -11 -22 -13 -37 -7 -54 7 -17 10 -18 10 -6 1 17 50 48 101 63 19 6 22 4 14 -5 -12 -12 -8 -50 5 -50 4 0 32 7 62 16 161 48 240 135 177 195 -59 55 -144 98 -227 114 -12 2 -30 6 -39 9 -21 6 -152 18 -153 14z"/>
<path d="M255 4477 c-207 -39 -242 -121 -102 -241 39 -33 63 -46 85 -46 17 0 33 4 37 10 14 23 125 -14 125 -42 0 -6 3 -9 6 -6 3 3 -4 27 -16 52 -11 26 -18 52 -14 58 4 7 10 5 16 -6 14 -25 33 -19 62 19 23 30 25 38 15 57 -7 13 -13 51 -13 85 0 59 -1 63 -25 67 -36 8 -116 4 -176 -7z"/>
<path d="M1220 4343 c0 -13 29 -38 35 -31 3 3 -4 13 -15 23 -11 10 -20 13 -20 8z"/>
<path d="M1485 3896 c-34 -32 -35 -35 -9 -18 32 22 60 51 53 55 -2 1 -22 -15 -44 -37z"/>
<path d="M1455 3288 c-35 -114 -39 -123 -45 -98 -3 14 -13 26 -22 26 -10 1 -15 -2 -12 -7 3 -5 -2 -9 -10 -9 -11 0 -16 -9 -16 -29 0 -17 -4 -32 -9 -36 -5 -3 -15 -29 -21 -59 -6 -29 -19 -70 -30 -91 -15 -29 -18 -53 -15 -122 2 -51 8 -90 15 -96 10 -9 12 -8 7 5 -3 9 1 22 9 28 8 7 14 24 15 39 0 14 4 35 9 46 6 14 9 -1 11 -50 l2 -70 7 70 c4 39 14 90 23 115 15 42 32 145 31 182 0 9 3 15 7 13 3 -3 11 8 17 23 17 43 41 132 36 132 -2 0 -6 -6 -9 -12z m-75 -255 c0 -26 -3 -34 -11 -26 -9 9 -3 63 7 63 2 0 4 -17 4 -37z"/>
<path d="M1273 2633 c-19 -43 -32 -116 -49 -278 -2 -27 -14 -72 -25 -99 -24 -57 -32 -106 -18 -106 6 0 8 -4 4 -9 -3 -5 -1 -12 5 -16 15 -10 -7 -44 -38 -58 -14 -7 -45 -33 -69 -58 -53 -57 -96 -78 -119 -58 -13 10 -17 10 -25 -2 -5 -8 -9 -24 -9 -36 0 -13 -5 -23 -11 -23 -6 0 -4 -9 4 -21 14 -18 13 -26 -5 -66 -17 -39 -24 -61 -32 -111 -4 -20 -36 -54 -48 -50 -6 2 -17 22 -26 43 -8 22 -28 74 -44 115 -17 41 -31 80 -32 85 -2 6 -9 26 -18 45 -8 19 -14 36 -13 38 1 1 14 -2 29 -8 17 -6 24 -14 20 -22 -4 -7 -3 -8 5 -4 20 13 7 29 -34 41 -35 9 -43 18 -68 68 -24 52 -26 60 -12 73 20 21 19 31 -5 37 -11 3 -23 13 -26 24 -4 10 -18 30 -32 45 -28 31 -27 39 27 113 16 22 27 42 24 45 -3 3 -10 -4 -17 -14 -6 -11 -32 -41 -58 -68 -27 -29 -45 -56 -43 -66 6 -27 34 -90 43 -96 5 -3 9 -19 10 -35 0 -16 10 -48 21 -72 12 -23 21 -48 21 -55 0 -7 9 -22 21 -33 12 -11 18 -25 14 -31 -4 -6 0 -17 8 -23 13 -11 36 -66 41 -102 1 -8 5 -18 9 -21 4 -4 7 -25 7 -47 l0 -40 -27 24 -27 24 27 -33 c32 -39 34 -61 9 -88 -18 -19 -18 -22 -1 -94 13 -57 24 -81 46 -100 25 -22 28 -31 21 -56 -8 -31 -1 -108 13 -135 4 -9 13 -43 18 -75 5 -32 13 -75 17 -94 7 -32 6 -34 -9 -21 -18 14 -19 13 -31 -34 -3 -11 -4 1 -2 27 2 26 0 45 -5 42 -5 -3 -9 1 -10 8 0 7 -11 -18 -25 -56 -13 -39 -20 -72 -16 -75 5 -3 12 -19 16 -35 10 -41 68 -156 78 -156 5 0 -4 26 -21 58 -17 31 -35 70 -41 86 -9 26 -9 27 5 16 13 -11 15 -8 15 21 0 24 3 30 9 20 6 -9 5 -24 0 -39 -12 -31 -6 -38 15 -17 15 15 16 14 16 -12 1 -27 1 -27 15 -9 8 11 15 30 15 42 0 24 -26 40 -34 21 -3 -7 -3 2 1 18 8 40 11 42 28 19 20 -27 36 -86 26 -98 -10 -13 -4 -67 9 -80 5 -5 12 14 16 45 6 46 14 61 57 106 27 29 54 50 60 46 5 -3 3 -10 -7 -15 -9 -5 -14 -14 -10 -19 8 -14 -26 -50 -40 -42 -6 3 -8 3 -4 -2 4 -4 3 -14 -3 -21 -9 -10 -7 -15 5 -20 13 -5 14 -9 3 -25 -16 -22 -6 -137 13 -149 6 -4 13 -26 13 -49 2 -34 5 -40 20 -35 13 4 11 -4 -13 -39 -36 -54 -40 -74 -6 -32 20 24 27 28 37 18 10 -10 8 -19 -11 -45 -22 -31 -22 -32 -2 -14 12 11 22 15 22 9 0 -19 -22 -73 -30 -73 -4 0 -16 -12 -26 -27 -15 -24 -15 -26 -1 -14 15 12 17 10 17 -20 0 -26 3 -30 10 -19 7 11 10 7 11 -20 l2 -35 7 30 c17 73 33 95 43 58 2 -10 3 7 1 37 -3 49 -2 52 8 28 10 -23 28 -39 28 -24 0 21 -35 164 -42 173 -5 7 -6 18 -1 25 4 7 8 49 9 93 1 85 24 227 41 260 21 39 24 99 8 158 -12 47 -13 68 -4 100 6 22 8 53 5 69 -3 17 -1 30 8 35 15 9 36 46 36 62 0 6 -7 11 -15 11 -8 0 -15 -6 -15 -13 0 -8 -9 -22 -21 -33 -31 -28 -54 -8 -54 49 0 25 -4 49 -8 53 -4 4 -7 27 -7 51 0 37 6 49 38 81 21 20 51 43 67 51 17 7 42 20 57 27 14 8 32 14 40 14 7 0 46 32 87 71 131 127 156 228 107 433 -30 123 -29 129 45 166 40 21 139 136 139 161 0 25 -28 45 -42 31 -7 -7 -29 -12 -49 -12 -21 0 -40 -3 -43 -8 -6 -11 77 -2 91 10 16 13 34 1 26 -17 -3 -8 -34 -34 -70 -57 -36 -23 -60 -44 -54 -46 6 -2 1 -12 -11 -22 -20 -16 -25 -17 -39 -4 -9 8 -23 14 -30 12 -11 -2 -15 21 -20 107 l-5 110 -4 -85 c-3 -73 -4 -77 -7 -30 -3 30 -9 60 -14 66 -5 6 -6 19 -3 29 4 9 2 20 -3 24 -5 3 -14 14 -19 24 -9 15 -13 11 -31 -30z m-379 -1116 c-8 -81 -24 -98 -24 -26 0 64 9 101 22 93 5 -3 6 -32 2 -67z m2 -373 c-4 -18 -11 -34 -17 -34 -9 0 -6 23 8 75 9 32 16 -1 9 -41z m29 -74 c0 -45 -7 -50 -29 -18 -21 30 -20 37 7 48 12 5 22 9 22 9 0 1 0 -17 0 -39z m29 -56 c14 -5 13 -10 -5 -35 -25 -35 -46 -39 -23 -4 8 13 13 29 9 35 -7 12 -3 12 19 4z"/>
<path d="M413 2458 c-5 -7 -17 -31 -27 -53 -11 -22 -23 -48 -28 -58 -12 -25 38 -45 60 -23 12 12 11 15 -8 21 -25 8 -24 24 4 88 16 37 16 47 -1 25z"/>
<path d="M569 2411 c-61 -46 -131 -114 -99 -96 8 5 41 31 73 57 32 26 60 48 63 48 6 0 -38 -63 -51 -72 -38 -26 -49 -37 -36 -38 8 0 35 21 59 48 25 26 47 46 51 45 3 -1 7 12 7 28 1 16 1 29 -1 29 -1 0 -31 -22 -66 -49z"/>
<path d="M590 2278 c0 -13 -4 -17 -12 -12 -7 4 -2 -5 11 -19 21 -23 32 -27 82 -27 40 0 63 5 79 18 31 25 20 38 -42 47 -98 15 -118 14 -118 -7z"/>
<path d="M113 2255 c-29 -13 -53 -27 -53 -31 0 -3 8 -3 17 0 9 4 21 1 26 -6 6 -10 7 -9 4 4 -3 9 1 19 9 22 22 8 22 8 27 -16 3 -22 4 -22 11 -3 4 11 12 28 17 38 12 22 5 21 -58 -8z"/>
<path d="M456 2215 c39 -62 97 -185 90 -192 -2 -3 2 -26 10 -51 19 -61 44 -169 44 -188 0 -23 -172 198 -180 231 -4 16 -11 38 -15 48 -6 15 -1 14 41 -7 66 -32 97 -41 92 -26 -2 6 -6 10 -10 8 -3 -2 -15 5 -27 16 -11 10 -48 28 -83 41 -96 34 -156 65 -189 97 -17 17 -29 24 -29 16 0 -15 41 -54 53 -50 4 1 10 -5 13 -13 3 -8 10 -12 15 -9 5 3 9 0 9 -7 0 -7 3 -10 6 -6 4 3 13 -1 21 -9 9 -8 28 -18 44 -21 26 -5 29 -9 29 -47 0 -36 7 -49 48 -92 81 -88 165 -204 173 -242 6 -24 7 -9 3 43 -7 110 -58 311 -100 392 -19 36 -33 72 -30 80 3 7 1 13 -5 13 -6 0 -7 5 -3 12 4 7 3 8 -4 4 -6 -4 -21 -2 -32 4 -16 9 -13 -1 16 -45z"/>
<path d="M200 2156 c0 -11 30 -66 36 -66 2 0 -3 15 -12 33 -19 36 -24 44 -24 33z"/>
<path d="M330 1976 c0 -11 30 -66 36 -66 2 0 -3 15 -12 33 -19 36 -24 44 -24 33z"/>
<path d="M605 1558 c-9 -24 -21 -54 -27 -68 -7 -20 -11 -22 -19 -10 -9 13 -10 13 -8 0 3 -27 -1 -37 -21 -60 -11 -13 -16 -26 -12 -29 5 -3 12 -16 16 -28 6 -18 4 -22 -8 -17 -8 3 -17 13 -19 22 -3 10 -5 2 -6 -15 -1 -27 3 -33 19 -33 25 0 43 41 34 76 -4 14 -2 24 5 24 14 0 25 -45 17 -67 -5 -14 -2 -13 16 5 20 19 21 24 8 32 -13 8 -13 13 3 41 9 17 17 42 17 57 0 25 -1 25 -15 6 -25 -33 -18 6 10 55 28 48 29 51 16 51 -5 0 -17 -19 -26 -42z"/>
<path d="M506 1292 c-5 -14 -17 -17 -63 -17 -32 1 -50 0 -40 -2 9 -3 17 -8 17 -13 0 -5 -8 -11 -17 -13 -10 -3 -2 -5 17 -6 26 0 31 2 20 9 -8 5 -10 10 -5 11 6 0 20 2 33 5 28 5 29 -10 1 -30 -12 -8 -18 -19 -15 -25 4 -6 3 -27 -3 -46 -7 -27 -6 -42 6 -65 8 -17 15 -30 16 -30 1 0 1 36 1 80 -1 61 2 83 14 92 13 11 15 10 9 -4 -4 -11 -2 -15 6 -12 7 2 13 22 15 44 3 42 -3 52 -12 22z"/>
<path d="M648 1280 c-12 -16 -23 -38 -24 -47 -1 -10 -5 -27 -9 -38 -5 -14 1 -11 19 10 14 16 28 26 32 22 4 -4 -8 -23 -26 -42 -18 -19 -31 -37 -28 -40 3 -4 23 14 44 39 21 25 40 44 42 41 2 -2 -10 -21 -27 -42 -17 -21 -31 -42 -31 -46 0 -5 18 13 40 39 22 27 40 55 40 64 0 9 -3 11 -8 5 -9 -13 -42 -16 -42 -4 0 5 -8 6 -17 2 -13 -4 -10 3 10 24 28 31 33 43 17 43 -5 0 -19 -13 -32 -30z"/>
<path d="M529 1144 c-6 -16 -13 -51 -15 -79 l-3 -50 9 53 c6 29 15 62 21 74 6 11 8 22 5 25 -3 3 -11 -7 -17 -23z"/>
<path d="M440 1080 c-10 -23 -5 -88 8 -103 11 -12 15 -37 15 -84 0 -36 3 -80 7 -97 5 -17 11 -43 14 -57 5 -22 13 -28 41 -31 l35 -4 -24 20 c-16 14 -24 32 -24 54 -1 40 8 40 37 1 13 -17 24 -29 26 -27 2 2 -2 35 -10 73 -7 39 -11 73 -8 78 2 4 -1 6 -9 5 -7 -2 -12 2 -11 9 1 6 -16 30 -39 54 -26 26 -44 57 -49 78 -4 20 -8 34 -9 31z"/>
<path d="M689 878 c14 -36 85 -139 112 -164 15 -12 11 -3 -12 29 -19 27 -48 71 -65 98 -38 61 -48 71 -35 37z"/>
<path d="M814 849 c-3 -6 0 -18 9 -26 13 -14 15 -13 14 11 -2 27 -11 34 -23 15z"/>
<path d="M902 835 c-7 -14 -12 -34 -11 -43 0 -9 7 1 15 22 16 45 13 59 -4 21z"/>
<path d="M696 758 c3 -7 17 -22 32 -32 27 -19 27 -19 -2 12 -32 35 -38 38 -30 20z"/>
<path d="M640 750 c1 -3 7 -30 15 -60 l15 -55 -5 50 c-3 27 -10 54 -15 59 -6 6 -10 8 -10 6z"/>
<path d="M501 698 c-2 -17 23 -58 36 -58 9 0 13 -14 14 -42 0 -30 3 -37 8 -24 11 29 0 78 -19 83 -10 3 -22 14 -28 26 -6 12 -11 19 -11 15z"/>
<path d="M796 523 c-4 -10 -4 -14 0 -10 4 4 14 1 22 -6 13 -10 14 -9 3 11 -14 27 -17 27 -25 5z"/>
<path d="M555 505 c2 -16 7 -57 11 -90 4 -33 15 -76 26 -95 14 -26 17 -29 13 -10 -4 14 -11 50 -16 80 -9 59 -42 168 -34 115z"/>
<path d="M675 438 l-30 -31 34 7 c25 4 32 3 28 -7 -4 -10 4 -12 27 -10 34 5 34 4 -34 -47 -20 -16 -22 -19 -7 -20 9 0 17 -4 17 -10 0 -5 7 -7 16 -3 12 4 15 2 12 -8 -3 -8 -11 -14 -19 -14 -34 0 -37 -20 -8 -53 16 -18 29 -39 29 -47 0 -16 -40 -46 -52 -39 -4 3 -5 -2 -1 -11 4 -12 8 -13 13 -4 6 8 11 6 19 -9 16 -31 13 -51 -4 -28 -8 11 -15 16 -15 10 1 -14 23 -40 45 -51 14 -7 32 -7 60 1 40 12 40 12 40 61 0 47 -1 50 -30 55 -24 4 -30 10 -32 36 -2 22 5 38 22 54 31 29 31 46 1 112 -12 29 -26 61 -29 71 -11 29 -67 22 -102 -15z"/>
<path d="M963 220 c0 -22 4 -43 9 -46 5 -3 7 12 4 36 -7 56 -13 61 -13 10z"/>
</g>
<g id="layer110" fill="#b3bacd" stroke="none">
<path d="M539 4498 c0 -2 -1 -37 -3 -78 -1 -41 -5 -81 -10 -88 -4 -7 -1 -23 8 -37 9 -13 16 -32 16 -41 0 -10 6 -14 14 -11 10 4 12 0 8 -15 -3 -14 -1 -19 6 -14 6 3 9 15 7 24 -2 10 0 34 4 53 l8 34 7 -46 c6 -34 4 -54 -8 -77 -11 -22 -13 -37 -7 -54 7 -17 10 -19 10 -5 1 11 19 26 49 40 26 12 49 25 50 30 9 19 21 -7 15 -35 -6 -30 -6 -30 28 -23 19 4 39 10 44 13 6 4 18 8 28 9 32 5 112 51 140 81 23 24 28 36 24 62 -6 32 -12 39 -82 89 -40 27 -105 55 -105 44 0 -3 -6 -1 -13 5 -13 12 -50 21 -107 27 -104 13 -130 15 -131 13z"/>
<path d="M255 4477 c-27 -5 -61 -14 -75 -20 -14 -5 -31 -12 -39 -13 -32 -6 -66 -42 -69 -72 -4 -43 19 -83 81 -136 59 -50 97 -59 129 -29 11 10 18 12 18 4 0 -6 6 -11 13 -10 31 4 50 -3 72 -26 30 -29 31 -26 5 31 -22 48 -19 74 6 49 22 -21 28 -19 58 20 23 30 25 38 15 57 -7 13 -13 51 -13 85 0 62 0 63 -30 68 -37 6 -102 3 -171 -8z"/>
<path d="M507 4441 c3 -27 1 -63 -5 -80 -6 -17 -7 -31 -3 -31 5 0 11 10 15 23 9 35 7 137 -4 137 -5 0 -7 -21 -3 -49z"/>
<path d="M444 4236 c-11 -29 9 -51 46 -49 39 2 48 9 32 25 -9 9 -12 9 -12 0 0 -22 -29 -12 -44 16 -13 24 -15 25 -22 8z"/>
<path d="M432 4060 c0 -19 2 -27 5 -17 2 9 2 25 0 35 -3 9 -5 1 -5 -18z"/>
<path d="M1253 3850 c0 -25 2 -35 4 -22 2 12 2 32 0 45 -2 12 -4 2 -4 -23z"/>
<path d="M590 3417 c4 -41 5 -41 8 -8 2 18 0 37 -5 42 -5 5 -6 -11 -3 -34z"/>
<path d="M1457 3293 c-7 -12 -20 -79 -14 -73 6 6 27 80 22 80 -2 0 -6 -3 -8 -7z"/>
<path d="M403 3125 c0 -22 2 -30 4 -17 2 12 2 30 0 40 -3 9 -5 -1 -4 -23z"/>
<path d="M1102 2940 c0 -19 2 -27 5 -17 2 9 2 25 0 35 -3 9 -5 1 -5 -18z"/>
<path d="M1350 2692 l5 -57 3 49 c2 27 0 52 -5 57 -4 4 -6 -18 -3 -49z"/>
<path d="M465 2629 c-11 -17 -2 -18 19 -3 17 12 17 14 4 14 -9 0 -20 -5 -23 -11z"/>
<path d="M1555 2560 c-3 -5 -24 -10 -45 -10 -21 0 -41 -3 -44 -8 -8 -13 78 0 99 14 11 8 14 14 8 14 -7 0 -15 -4 -18 -10z"/>
<path d="M919 2403 c-12 -15 -12 -16 4 -10 10 4 23 7 28 7 6 0 7 5 4 10 -9 15 -21 12 -36 -7z"/>
<path d="M152 2271 c-8 -5 -12 -20 -10 -37 4 -25 5 -27 12 -9 4 11 12 28 17 38 10 18 2 22 -19 8z"/>
<path d="M87 2244 c-16 -9 -27 -17 -25 -20 5 -5 68 25 68 32 0 7 -15 3 -43 -12z"/>
<path d="M440 2250 c0 -8 10 -27 23 -42 12 -14 27 -35 34 -45 7 -10 5 0 -3 22 -18 46 -54 89 -54 65z"/>
<path d="M200 2210 c0 -15 38 -55 53 -55 4 0 12 -7 17 -15 5 -8 10 -10 10 -5 0 6 5 3 10 -5 6 -9 10 -10 10 -3 0 6 -15 22 -32 34 -18 12 -41 32 -50 43 -13 16 -18 17 -18 6z"/>
<path d="M1418 2165 c4 -22 7 -74 7 -115 0 -59 -5 -85 -24 -120 -46 -89 -82 -126 -166 -170 l-80 -41 -45 48 c-25 27 -71 79 -103 116 -59 68 -77 75 -77 31 0 -13 -5 -24 -11 -24 -16 0 70 -89 131 -134 31 -23 56 -45 57 -51 1 -5 -8 -15 -20 -22 -13 -7 -16 -12 -8 -13 10 0 7 -9 -11 -27 -14 -16 -38 -46 -53 -68 -25 -38 -26 -39 -20 -10 4 17 21 48 38 70 l31 40 -29 -25 c-36 -32 -57 -83 -49 -116 4 -15 2 -29 -5 -33 -8 -5 -7 -28 4 -85 20 -106 20 -116 -8 -116 -13 0 -27 3 -31 7 -6 7 -46 12 -46 7 0 -2 4 -13 10 -26 5 -13 14 -42 20 -65 8 -34 14 -40 30 -36 11 3 20 10 20 17 0 8 3 8 8 0 4 -6 15 -13 25 -17 22 -8 34 -41 42 -114 6 -62 -4 -118 -22 -118 -22 0 -26 -16 -24 -100 0 -47 -3 -94 -9 -105 -7 -13 -4 -30 11 -65 20 -45 20 -47 2 -68 l-18 -22 23 19 c12 11 21 25 18 32 -3 7 -2 15 2 18 3 4 7 37 7 74 2 78 26 217 43 249 7 12 12 28 11 35 0 7 -5 1 -11 -14 -5 -16 -13 -28 -16 -28 -10 0 -2 93 8 103 4 5 -5 34 -22 65 -16 31 -28 67 -26 81 2 20 9 10 33 -48 29 -72 48 -85 25 -17 -8 26 -8 46 0 76 6 22 9 58 6 80 -2 23 0 43 6 46 7 4 8 2 4 -4 -4 -7 -3 -12 2 -12 9 0 32 43 32 60 0 6 -7 10 -15 10 -8 0 -15 -6 -15 -13 0 -8 -9 -22 -21 -33 -31 -28 -54 -8 -54 49 0 25 -4 49 -8 53 -4 4 -7 27 -7 51 0 37 6 49 38 81 21 20 49 42 62 48 75 34 80 38 68 46 -8 6 -2 7 17 3 27 -5 38 2 104 66 104 101 126 152 125 284 0 55 -6 111 -12 125 -10 22 -11 20 -4 -15z m-448 -254 c12 -24 -17 -62 -31 -40 -4 7 -4 20 1 30 5 9 6 19 3 23 -3 3 -1 6 5 6 6 0 16 -9 22 -19z m43 -54 c8 -13 39 -50 68 -82 67 -73 46 -61 -109 62 -12 10 -13 15 -2 28 17 20 25 19 43 -8z m45 -547 c-23 -29 -38 -37 -38 -21 0 5 11 18 25 29 13 11 21 23 17 27 -4 5 -1 5 6 1 9 -6 7 -14 -10 -36z"/>
<path d="M516 2115 c4 -16 13 -43 21 -58 8 -16 12 -31 9 -34 -2 -3 2 -26 10 -51 20 -66 44 -173 43 -197 0 -11 5 -38 10 -60 9 -33 9 -27 5 40 -6 96 -59 318 -85 360 l-20 30 7 -30z"/>
<path d="M310 2120 c0 -9 47 -30 65 -30 11 0 15 -12 15 -42 1 -43 15 -68 55 -98 19 -14 19 -14 3 5 -18 21 -31 52 -42 99 l-7 29 26 -17 c14 -9 30 -14 34 -11 14 8 42 -6 34 -18 -3 -5 -1 -7 5 -3 6 3 13 2 17 -4 8 -13 25 -13 25 0 0 6 -5 10 -11 10 -6 0 -23 8 -37 18 -35 24 -138 62 -146 55 -3 -4 -6 -2 -6 4 0 5 -7 10 -15 10 -8 0 -15 -3 -15 -7z"/>
<path d="M331 1975 c0 -5 6 -21 14 -35 8 -14 14 -20 14 -15 0 6 -6 21 -14 35 -8 14 -14 21 -14 15z"/>
<path d="M720 1966 c20 -8 34 -19 32 -27 -3 -11 -1 -12 9 -1 17 16 3 28 -41 36 l-35 6 35 -14z"/>
<path d="M538 1832 c19 -23 39 -45 45 -49 7 -4 -3 12 -21 35 -19 23 -39 45 -45 49 -7 4 3 -12 21 -35z"/>
<path d="M447 1755 c9 -19 18 -33 21 -31 4 5 -26 66 -33 66 -3 0 3 -16 12 -35z"/>
<path d="M495 1610 c12 -38 44 -110 49 -110 5 0 -43 122 -51 130 -3 3 -2 -6 2 -20z"/>
<path d="M597 1538 c-14 -35 -30 -62 -34 -61 -5 1 -10 -8 -10 -19 -1 -11 -12 -30 -24 -41 -14 -13 -18 -22 -11 -25 7 -2 12 -10 12 -19 0 -8 6 -13 13 -10 6 2 12 17 12 34 0 16 8 37 18 47 9 10 17 27 17 39 0 12 11 42 25 66 28 48 29 51 16 51 -5 0 -20 -28 -34 -62z"/>
<path d="M603 1480 c-6 -15 -7 -26 -1 -29 15 -5 20 5 16 31 l-5 23 -10 -25z"/>
<path d="M580 1383 c0 -21 3 -24 9 -14 5 8 7 20 4 28 -8 21 -13 15 -13 -14z"/>
<path d="M501 1353 c-1 -27 3 -33 19 -33 23 0 27 15 6 27 -7 4 -16 15 -19 23 -3 8 -6 0 -6 -17z"/>
<path d="M505 1290 c-4 -11 -11 -18 -16 -15 -5 3 -6 -1 -3 -9 3 -9 -3 -20 -14 -27 -11 -7 -18 -18 -15 -25 2 -7 0 -28 -6 -48 -7 -28 -6 -43 5 -64 l14 -27 0 28 c0 16 -4 26 -10 22 -5 -3 -10 -1 -10 4 0 6 7 11 16 11 14 0 15 2 3 17 -8 9 -9 14 -3 10 6 -4 9 6 8 28 -2 21 3 38 13 47 15 11 16 11 10 -5 -4 -11 -3 -16 4 -12 5 4 7 16 3 27 -4 14 -2 18 5 14 7 -5 11 2 11 18 0 31 -6 33 -15 6z"/>
<path d="M434 1069 c-3 -6 -1 -16 5 -22 8 -8 11 -5 11 11 0 24 -5 28 -16 11z"/>
<path d="M436 1014 c-3 -9 3 -27 13 -41 11 -13 17 -31 14 -40 -4 -10 -2 -14 5 -9 6 3 14 2 17 -4 4 -6 1 -9 -6 -8 -7 2 -14 -6 -15 -17 -1 -14 5 -21 17 -22 11 -1 19 2 19 8 0 5 -8 9 -17 9 -15 0 -14 2 3 14 22 17 23 16 29 -15 12 -65 18 -85 27 -96 18 -22 30 -14 24 15 -3 15 -8 39 -10 53 -6 39 -28 69 -49 69 -11 0 -17 5 -14 13 2 6 1 21 -4 32 -7 18 -8 19 -8 1 -1 -16 -3 -16 -20 5 -12 15 -15 26 -9 30 7 4 7 9 0 13 -5 3 -13 -1 -16 -10z"/>
<path d="M463 840 c-1 -12 2 -18 9 -14 7 5 9 -1 4 -19 -3 -14 -2 -28 2 -31 13 -8 13 49 -1 68 -12 16 -13 16 -14 -4z"/>
<path d="M641 743 c0 -4 4 -17 9 -28 8 -19 9 -19 9 2 1 12 -3 25 -9 28 -5 3 -10 3 -9 -2z"/>
<path d="M517 654 c3 -7 11 -14 18 -14 8 0 16 -10 18 -22 4 -16 5 -15 4 6 -2 20 -9 31 -24 37 -17 6 -21 5 -16 -7z"/>
<path d="M1055 493 c1 -16 7 -37 13 -48 11 -17 11 -14 6 20 -8 48 -22 68 -19 28z"/>
<path d="M561 438 c0 -9 4 -20 9 -23 6 -4 8 -15 5 -24 -3 -10 -1 -29 4 -42 8 -21 10 -17 10 24 1 26 -3 47 -8 47 -5 0 -12 8 -14 18 -4 15 -5 15 -6 0z"/>
</g>
<g id="layer111" fill="#f1eeee" stroke="none">
<path d="M545 4486 c-2 -6 -5 -44 -7 -83 -3 -70 -3 -73 18 -73 61 0 79 -49 46 -123 -11 -25 -18 -48 -15 -50 2 -3 23 8 46 23 23 16 51 30 62 32 17 3 20 -2 17 -29 -4 -38 -6 -37 47 -18 23 8 44 14 47 14 13 -2 73 27 110 54 42 29 64 62 60 90 -6 43 -105 113 -181 129 -30 6 -55 14 -55 17 0 3 -15 7 -33 8 -17 1 -61 6 -95 11 -45 6 -65 6 -67 -2z"/>
<path d="M266 4473 c-33 -7 -61 -11 -64 -8 -2 2 -14 -2 -26 -10 -11 -8 -28 -15 -37 -15 -31 0 -69 -39 -69 -71 0 -45 23 -82 83 -133 40 -33 63 -46 86 -46 21 0 31 5 31 15 0 8 6 15 14 15 21 0 89 -30 110 -48 17 -15 17 -13 -3 25 -37 74 -26 111 42 136 25 9 21 -7 -5 -18 -26 -11 -36 -54 -17 -66 15 -9 39 7 39 26 0 8 5 15 12 17 10 4 10 13 0 45 -7 22 -12 63 -12 91 0 40 -4 52 -18 56 -28 9 -100 4 -166 -11z"/>
<path d="M510 4427 l5 -62 3 54 c2 30 0 58 -5 62 -4 4 -6 -20 -3 -54z"/>
<path d="M530 4302 c0 -5 7 -15 15 -22 8 -7 12 -17 8 -22 -3 -6 0 -9 8 -6 8 3 14 16 14 29 0 17 -6 25 -22 27 -13 2 -23 -1 -23 -6z"/>
<path d="M1342 2850 c0 -19 2 -27 5 -17 2 9 2 25 0 35 -3 9 -5 1 -5 -18z"/>
<path d="M1591 2543 c0 -6 -4 -20 -7 -30 -5 -14 -4 -15 5 -7 7 7 11 20 8 30 -3 11 -5 14 -6 7z"/>
<path d="M1501 2412 c-25 -26 -34 -40 -21 -31 21 14 79 80 69 79 -2 -1 -24 -22 -48 -48z"/>
<path d="M1406 2346 c-28 -22 -29 -25 -18 -57 l11 -34 -5 31 c-4 26 0 36 26 58 39 32 26 35 -14 2z"/>
<path d="M140 2243 c0 -29 2 -29 19 5 10 18 9 22 -4 22 -10 0 -15 -9 -15 -27z"/>
<path d="M456 2225 c9 -14 19 -24 21 -21 7 7 -16 46 -28 46 -5 0 -2 -11 7 -25z"/>
<path d="M206 2197 c2 -7 14 -19 27 -26 21 -13 21 -12 -2 13 -27 29 -33 32 -25 13z"/>
<path d="M1418 2165 c4 -22 7 -74 7 -115 0 -59 -5 -85 -24 -120 -46 -89 -82 -126 -166 -170 l-80 -41 -45 48 c-25 27 -71 78 -103 113 -32 36 -50 53 -41 37 13 -22 14 -30 4 -43 -7 -8 -20 -12 -29 -9 -25 10 48 -63 109 -109 31 -22 56 -45 57 -51 1 -5 -8 -15 -20 -22 -13 -7 -16 -12 -8 -13 10 0 7 -9 -11 -27 -14 -16 -38 -46 -53 -68 -25 -38 -26 -39 -20 -10 4 17 21 48 38 70 l31 40 -29 -25 c-36 -32 -57 -83 -49 -116 4 -15 2 -29 -5 -33 -8 -5 -7 -28 4 -85 20 -106 20 -116 -8 -116 -13 0 -27 3 -31 7 -6 7 -46 12 -46 7 0 -2 4 -13 10 -26 5 -13 14 -42 20 -65 8 -34 14 -40 30 -36 11 3 20 10 20 17 0 8 3 8 8 0 4 -6 15 -13 25 -17 22 -8 34 -41 42 -114 6 -62 -4 -118 -22 -118 -22 0 -26 -16 -24 -100 0 -47 -3 -94 -9 -105 -7 -13 -5 -30 9 -60 24 -53 34 -39 36 50 2 76 26 216 43 247 7 12 12 28 11 35 0 7 -5 1 -11 -14 -5 -16 -13 -28 -16 -28 -10 0 -2 93 8 103 4 5 -5 34 -22 65 -16 31 -28 67 -26 81 2 20 9 10 33 -48 29 -72 48 -85 25 -17 -8 26 -8 46 0 76 6 22 9 58 6 80 -2 23 0 43 6 46 7 4 8 2 4 -4 -4 -7 -3 -12 2 -12 9 0 32 43 32 60 0 6 -7 10 -15 10 -8 0 -15 -6 -15 -13 0 -8 -9 -22 -21 -33 -31 -28 -54 -8 -54 49 0 25 -4 49 -8 53 -4 4 -7 27 -7 51 0 37 6 49 38 81 21 20 49 42 62 48 75 34 80 38 68 46 -8 6 -2 7 17 3 27 -5 38 2 104 66 104 101 126 152 125 284 0 55 -6 111 -12 125 -10 22 -11 20 -4 -15z m-405 -308 c8 -13 39 -50 68 -82 67 -73 46 -61 -109 62 -12 10 -13 15 -2 28 17 20 25 19 43 -8z m45 -547 c-23 -29 -38 -37 -38 -21 0 5 11 18 25 29 13 11 21 23 17 27 -4 5 -1 5 6 1 9 -6 7 -14 -10 -36z"/>
<path d="M325 2115 c11 -9 30 -18 43 -22 12 -3 22 -10 22 -16 0 -6 3 -8 6 -4 4 3 19 0 35 -9 16 -8 29 -12 29 -9 0 6 -61 37 -115 59 -35 14 -37 14 -20 1z"/>
<path d="M411 2009 c-1 -8 6 -24 15 -35 15 -19 15 -19 6 1 -5 11 -12 27 -15 35 -5 13 -6 13 -6 -1z"/>
<path d="M581 1890 c1 -14 5 -36 9 -50 7 -23 8 -22 9 10 0 19 -4 42 -9 50 -8 12 -10 10 -9 -10z"/>
<path d="M598 1785 c-3 -14 0 -29 6 -34 9 -7 11 -1 8 24 -5 41 -8 44 -14 10z"/>
<path d="M592 1525 c-17 -37 -14 -45 4 -12 9 16 14 31 11 33 -2 2 -9 -7 -15 -21z"/>
<path d="M552 1470 c2 -28 -5 -50 -16 -50 -8 0 -17 -7 -20 -16 -12 -32 25 -8 49 31 22 38 22 41 5 41 -10 0 -18 -3 -18 -6z"/>
<path d="M500 1354 c0 -11 29 -34 34 -26 2 4 -4 13 -15 20 -10 7 -19 10 -19 6z"/>
<path d="M469 949 c-7 -24 -6 -58 2 -53 6 3 8 12 5 20 -3 8 -1 14 3 14 5 0 12 -6 14 -12 4 -8 6 -9 6 -2 1 11 -28 41 -30 33z"/>
<path d="M520 881 c0 -39 25 -101 41 -101 7 0 9 8 5 23 -4 12 -9 37 -13 54 -3 18 -12 38 -19 44 -11 9 -14 5 -14 -20z"/>
<path d="M463 840 c-1 -12 3 -18 9 -14 7 5 9 -1 4 -19 -3 -14 -2 -28 2 -31 12 -7 8 62 -4 74 -6 6 -10 3 -11 -10z"/>
<path d="M1025 597 c-4 -8 0 -28 9 -44 9 -17 16 -22 17 -13 4 46 -15 88 -26 57z"/>
</g>


</svg>